/* XPM */
static char * basechar_xpm[] = {
/* columns rows colors chars-per-pixel */
"64 64 229 3",
"   	c gray4",
".  	c #0A0709",
"X  	c #151815",
"o  	c #120E11",
"O  	c #141313",
"+  	c #060505",
"@  	c #0D0D11",
"#  	c #3B2D2B",
"$  	c #5C4334",
"%  	c #13110E",
"&  	c #190E0B",
"*  	c #1C1B1A",
"=  	c #4D3C34",
"-  	c #240F0B",
";  	c #050609",
":  	c black",
">  	c #543D33",
",  	c #241D1C",
"<  	c #060A0B",
"1  	c #252529",
"2  	c #1A1619",
"3  	c #1B130D",
"4  	c #2B1C14",
"5  	c #2D2925",
"6  	c #120D0C",
"7  	c #533E3B",
"8  	c #5B3D33",
"9  	c #130A03",
"0  	c #1A1513",
"q  	c #24211E",
"w  	c #3B3433",
"e  	c #3B322C",
"r  	c #492D2B",
"t  	c #7C6559",
"y  	c #54443C",
"u  	c #2B211D",
"i  	c #1C1205",
"p  	c #2C2114",
"a  	c #59493A",
"s  	c #4B332B",
"d  	c #353339",
"f  	c #060906",
"g  	c #0A0906",
"h  	c #4E4848",
"j  	c #836B5C",
"k  	c #0A0504",
"l  	c #2A1E22",
"z  	c #141419",
"x  	c #2A1D1C",
"c  	c #2C252A",
"v  	c #856B55",
"b  	c #554235",
"n  	c #252222",
"m  	c #2B2423",
"M  	c #342C2C",
"N  	c #3C3A3A",
"B  	c #3C2C24",
"V  	c #654226",
"C  	c #846654",
"Z  	c #84674D",
"A  	c #353333",
"S  	c #7D6B5C",
"D  	c #8B6A54",
"F  	c #583729",
"G  	c #11070B",
"H  	c #423533",
"J  	c #876758",
"K  	c #8B6D5B",
"L  	c #5B443B",
"P  	c #534442",
"I  	c #433A3A",
"U  	c #2C1B0D",
"Y  	c #312523",
"T  	c #251C15",
"R  	c #4D423D",
"E  	c #1D0709",
"W  	c #4D4442",
"Q  	c #392E32",
"!  	c #262823",
"~  	c #432D2B",
"^  	c #131206",
"/  	c #694838",
"(  	c #886A62",
")  	c #432C1C",
"_  	c #694432",
"`  	c #3C3125",
"'  	c #2E2D32",
"]  	c #2F312E",
"[  	c #83736B",
"{  	c #643C24",
"}  	c #1B0B03",
"|  	c #633D34",
" . 	c #624434",
"...	c #241F29",
"X..	c #8B756B",
"o..	c #43322B",
"O..	c #1A0301",
"+..	c #66372F",
"@..	c #231305",
"#..	c #120501",
"$..	c #373936",
"%..	c #22130C",
"&..	c #5B3D39",
"*..	c #23151A",
"=..	c #33242A",
"-..	c #D2AF8A",
";..	c #321E1B",
":..	c #3B2521",
">..	c #242217",
",..	c #847263",
"<..	c #3B2B1C",
"1..	c #927158",
"2..	c #CBA585",
"3..	c #321C14",
"4..	c #C2AA8A",
"5..	c #8A715B",
"6..	c #3D3936",
"7..	c #5A4643",
"8..	c #221513",
"9..	c #926A54",
"0..	c #D6A678",
"q..	c #472A14",
"w..	c #3B3439",
"e..	c #1B1D21",
"r..	c #0D120C",
"t..	c #4A3A38",
"y..	c #3B392D",
"u..	c #5B484B",
"i..	c #33231C",
"p..	c #3A2214",
"a..	c #0D1213",
"s..	c #46311B",
"d..	c #1F211D",
"f..	c #342213",
"g..	c #6A3D2D",
"h..	c #1B1916",
"j..	c #2E2632",
"k..	c #5C3C25",
"l..	c #331602",
"z..	c #976937",
"x..	c #CBA16B",
"c..	c #64422D",
"v..	c #342A25",
"b..	c #5C3C2B",
"n..	c #734529",
"m..	c #553218",
"M..	c #6A3C1A",
"N..	c #867154",
"B..	c #C5A583",
"V..	c #321D0C",
"C..	c #0E1003",
"Z..	c gray22",
"A..	c #504F4F",
"S..	c #545353",
"D..	c #575656",
"F..	c #5C5B5B",
"G..	c #746F6E",
"H..	c #7C7776",
"J..	c #976847",
"K..	c #472A0B",
"L..	c #63443B",
"P..	c #7D7167",
"I..	c #342E32",
"U..	c #492D24",
"Y..	c #443224",
"T..	c #432E32",
"R..	c #15191A",
"E..	c gray24",
"W..	c #595858",
"Q..	c #605E5E",
"!..	c #7A7675",
"~..	c #7F7877",
"^..	c #553B2C",
"/..	c #D8A36B",
"(..	c #D4A47C",
")..	c #544944",
"_..	c #6C492C",
"`..	c #713F18",
"'..	c #515050",
"]..	c #767271",
"[..	c #7F7978",
"{..	c #9B7348",
"}..	c #585757",
"|..	c #74706F",
" X.	c #706C6B",
".X.	c #180F11",
"XXX	c #4E4D4C",
"oXX	c #211E1E",
"OXX	c #151414",
"+XX	c #292320",
"@XX	c #37312F",
"#XX	c #151313",
"$XX	c #423A35",
"%XX	c #412926",
"&XX	c #220C01",
"*XX	c #261F1D",
"=XX	c #8C6539",
"-XX	c #623D2B",
";XX	c #34312D",
":XX	c #28221F",
">XX	c #241E22",
",XX	c #27211E",
"<XX	c #1E1C1C",
"1XX	c #1F2324",
"2XX	c #191718",
"3XX	c #222020",
"4XX	c #0B1218",
"5XX	c #1B1919",
"6XX	c #353131",
"7XX	c #313030",
"8XX	c #282526",
"9XX	c #262325",
"0XX	c #2B2929",
"qXX	c #252424",
"wXX	c #2D2A2B",
"eXX	c #312E2F",
"rXX	c #1E1B1B",
"tXX	c #131212",
"yXX	c #050A11",
"uXX	c #673D37",
"iXX	c #87756F",
"pXX	c #2D2A2A",
"aXX	c #100C1A",
"sXX	c #5C412C",
"dXX	c #5C4A44",
"fXX	c #693E24",
"gXX	c #714019",
"hXX	c #070611",
"jXX	c #8C7362",
/* pixels */
"            .  X  X  o  O     +     @  O  #  $  %  &  *  =  -  ;  :  :  :  :  :  :  :  :  :  :  :  :  :  :  :  :  :  :  :  :  :  ;  -  >  ,  %  %  $  #  O  @     +     O  O  o  O              ",
"            <  +  .  1  2  O  +        X  3  4  5     +  6  7  >  :  :  :  :  :  :  :  :  :  :  :  :  :  :  :  :  :  :  :  :  :  >  8  o  +  9  5  4  3  X        +  0  O  ,  .  <              ",
"               <     +        .           q  w  e  r  t  y  u  i  :  :  :  :  :  :  :  :  :  :  :  :  :  :  :  :  :  :  :  :  :  3  p  a  t  s  d  w  q           f           .     +           ",
"         O     0  O  %  2  g  .        X  0  h  y  j  k  5  l  z  :  :  :  :  :  :  :  :  :  :  :  :  :  :  :  :  :  :  :  :  :  O  x  c  k  v  b  h  0  X           +  O  %  *  +  +           ",
"+     n  n  c  w  m  5  M  e  6     g     0  0  %  N  B  V  C  g  :  :  :  :  :  :  :  :  :  :  :  :  :  :  :  :  :  :  :  :  :  g  Z  V  B  w  O  0  0     g     6  w  w  x  M  A  m  m  2     ",
"   ;     O  9  y  t  S  D  F  0  @     %  ,  +  G  A  c  H  u     :  :  :  :  :  :  :  :  :  :  :  :  :  :  :  :  :  :  :  :  :  .  u  H  5  A  G  .  ,  %     @  0  J  K  j  L  P  9  %     +  ",
"      g  2  m  H  I  U  Y  0  %  3  T  n  q  w  x  e  #  u  R  E  :  :  :  :  :  :  :  :  :  :  :  :  :  :  :  :  :  :  :  :  :  E  W  x  B  e  l  w  ,  n  T  3  %  9  4  x  Q  #  T     +     ",
"+     O  !  w  w  A  A  ~  y  ^  ;  @  n  w  #  Q  e  /  (  )  K  :  :  :  :  :  :  :  :  :  :  :  :  :  :  :  :  :  :  :  :  :  K  )  (  _  `  A  #  w  n  @  ;  ^  r  l  '  ]  T  A  q  O     ",
"+     .  .  n  w  b  (  [  u  &  B  #  Q  9  T  T  U  {  8  !  <  :  :  :  :  :  :  :  :  :  :  :  :  :  :  :  :  :  :  :  :  :  <  !  8  {  U  ,  T  9  Q  #  B  &  x  j  C  a  l  m           ",
"<     O  6  o  2  .  T  }  8  |   . D  v  }  2  ...O  ~  X..m  @  :  :  :  :  :  :  :  :  :  :  :  :  :  :  :  :  :  :  :  :  :     5  X..o..O  l  2  O..D  D   . +..b  k  Y     o  +  n  O     ",
";  6  @..}  k  1  ...#  o..e  #..w  w  u  .  g  0  0  w  P  q  g  :  :  :  :  :  :  :  :  :  :  :  :  :  :  :  :  :  :  :  :  :  g  q  P  w  0  0  g  ;  m  $..e  9  e  `  x  ...A  9  y  }  +  ",
"o  P  L  %..O  +  x  &..K  *..+  =..&  9  -..*     w  0  M  %  O  :  :  :  :  :  :  :  :  :  :  :  :  :  :  :  :  :  :  :  :  :  O  %  M  0  A     2  -..}  }  =..+  ;..J  :..>..O  3  ,..>  h  ",
"+  &  #  e  a  }  w  <..b  $  K  J  1..2..3..}  O  c  2  n  %  2  :  :  :  :  :  :  :  :  :  :  :  :  :  :  :  :  :  :  :  :  :  2  %  n  2  c  O  }  4  4..1..j  5..b  $  o..6..7..R  o..8..T  ",
";  n  A  H  ~  L  O..9..0..3..   e  B  a  $  l  O  .  m  n        :  :  :  :  :  :  :  :  :  :  :  :  :  :  :  :  :  :  :  :  :        q  !  .  0  l  $  P  B  #     q..0..1..k  $  o..M  w..e..",
"r..+  m  T  u  T  A  x  t..m  f  &..2..q..:  H  u  8..6  6  o     :  :  :  :  :  :  :  :  :  :  :  :  :  :  :  :  :  :  :  :  :     o  6  6  8..u  y..g  q..2..y  <  M  u..i..c  p..3  ,  0  a..",
"O  0  &  n  0  P  9..9..s..0  k  d..A  0  :  :  y  S  f..u  n     :  :  :  :  :  :  :  :  :  :  :  :  :  :  :  :  :  :  :  :  :     n  u  f..t  L  s  Y  O  A  ,  k  3  5..9..g..W  o  m  m  0  ",
"g  0  q  w  M  +  x  )  h..u  j..9  m  s  k..l..:  z..x..@..z  <  :  :  :  :  :  :  :  :  :  :  :  :  :  :  :  :  :  :  :  :  :  <  O  @..x..z..c..l..k..s  m  9  j..x  x  q..q  M  v..u  u  9  ",
"O  m  H  u  w  6..a  X  8.. .  . P  b..n..x..*..O  :  6..a..0                       -  -  -  -  -  -  -  -  -  -                       O  I  %  a..*..x..n..b..P   . &..n  m  B  w  M  w  N  ,  ",
"   ,  7  F  m..M..2..'  w..=..w  N..B..V..e  ^  0  :  :  h..C..                  -  -  Z..A..S..S..D..F..G..H..-                       X  0  3  3  ^  e  V..B..N..w  =..A  k  J..K..K..L..o..n  ",
"<..P..u  n  I..x  U..m..m..Y..g  x  5  i  T..k  R..X  g  :                 -  -  E..S..W..F..Q..!..~..-  -  -  -                       *     R..R..#..T..i  5  x  g  )  n..c..^..c  n  n  9  y  ",
"H  5  +  X  5  B  p../..(..P  k  ).._..`..V  <..2  m                    -  Z..'..W..F..]..[..[..-  -  -                                ...>..q  O  <..V  `.._..7..+  $  /..{..b  0  M  <  O  w  ",
",  0     +  0  w  ,  #  v..n  h..O  0  n  w  w  +     O  X           -  E..}..W..|.. X.~..~..-                                         X  O     +  w  w  n  0  O  0  6  y  W  3  3  0  2     .X.",
"b  B  T  X     2  ,  x  5  f  +  O  .  0  0  g     O     O           -  XXX}..Q..oXXOXXoXX-                                                  O     g  0  0  .  O  +     3  x  O  n  +  O  u  s  ",
"0  n  n  6  6  m  *  M  .  O  <  h..M  A  m  %  +        O  <        -  +XX@XXoXXOXXOXX#XX-                                                     +  %  m  A  M  h...     O  l  o  5  k  n  n  m  ",
"T  &  $XX,  2  0  +     X  o     O  +  0  n        +                    -  -  OXXOXX%XX%XX-                                                  +        n  0  +  O     O  0  .  n  O  n  m  w  3  ",
".  A  w  y  &XX4  k  %  m  6     %  X  .  .  X                             -  OXXOXXOXXOXX-  -  -                                                  X  .  .  X  %  .  X  O  h..*  f..@..y  w  A  ",
"k  T  o..F  V  {..&XX%     6  @     %  O  0  6  O  0  5     +        -  -  -  OXXOXXOXXOXX*XX+XX-  -  -                                   m  0  O  6  0  O  %     @  h..X  @..(..=XXc..L..u  6  ",
"-XX9..q..H  4  )  k  O  O  %     %  O  O  ;XXg  0  +  X  .        -  -  #XXOXXOXXOXXOXXOXXOXXOXX:XX+XX-  -  -  -                       .  X  +  0  g  ;XXO  O  %     6  @  X  @..p..u  4  B..{  ",
"D  `  ;XX^  n  d  O  @  %  6  >XXO  O  !  O  g  +              -  -  #XXOXXOXXOXXOXXOXXOXXOXXOXX-  -  +XX,XX<XX-  -                             +  g  O  !  O  O  *  6  O  <  2  n  u  q  ;XXs..",
"O  Y  6  1XXO  T  O  %  %  O  .  .  %  %  h..+  g              -  #XXOXXOXXOXXOXXOXXOXXOXXOXX2XX-  -  -  3XXoXX-  -  -  -                       g  +  h..%  %  .     0  h..%  0  u  4XX1XX#  ,  ",
";XXo  2  3  T  0  &  5  w  n  g  0  0  6  O  *  +  O           -  OXXOXXOXXOXXOXXOXXOXXOXX5XXoXX6XX-  <XX7XX-  -  -  +XX-  -                 O  f  *  O  6  h..0  g  M  n  T  6  0  0  l     2  ",
"g  m  0  %  O     .  o  X              O  O  X                 -  OXXOXXOXXOXXOXXOXXOXX-  8XX-  9XX3XX6XX-  -  -  -  -  +XX+XX-  -  -              X  O  O              X  X     a..g  h..,  q  ",
"A  e  B  9  +  ;     .     g                                   -  #XXOXXOXXOXXOXX#XX0XXqXX-  -  -  oXX-  -           -  -  -  +XX+XX-                                g        g  @  k  t  o..#  ",
"m  m  8..M  k  .        g  g  <                                -  #XXOXXOXXOXX#XX<XXwXX3XXeXX-  -  -  -                    -  -  -  -                             <  g  g  <     g  &  #  x  m  ",
"X  n  A  0  u  k  9  f  <     g                                -  #XXOXXOXXOXX#XX-  rXX-  -  -                                                                    g     ;  +  #..9  &  0  w  O  ",
"+     0  0  u  e  a  #..   <  k                                -  #XXOXXOXXOXXtXX-  rXX:  -                                                                       g  yXX.  #..>  e  &  %  X  +  ",
"+     !     0  w  o.._  #..f                                   -  #XXOXXOXXOXXtXXrXXrXX:  -                                                                          g  (  uXXM  e  6  2  @  +  ",
";  f  O  m  m  e  e  o..,..9                                   -  tXXOXXOXXOXX#XX-  -  -  -                                                                          9  y  `  i..M  q  n  %     ",
"      %  6  g  u  4  4  #..k                                   -  -  OXXOXXOXX#XX-                                                                                   iXX4  4  T  q  k  0        ",
"         O  w  n  q  w  R  k  +                                   -  #XXOXXOXX#XX-                                                                                +  9  e  ,  ,  q  0  O     +  ",
"         X     O  e  &  0  +                                      -  #XXOXXOXX#XX-                                                                                   X  6  &  6     O     +     ",
"            O     ;  yXX0  H  g                                   -  #XXOXXOXXOXX-                                                                                .  u  2  yXX                  ",
"               A  pXX+  k  W  #..      <        <  <              -  tXXOXXOXXtXX-                                                           <  <     g  <        #..6  k  .  6..O              ",
"            X  n  n  m  5  u  B  l  l  ,  w  W  k  g  g  g  g     -  -  OXXOXX-  -                                                     g  g  g  k  W  w  ,  l  l  B  T  n  O  m  X  O           ",
"            +  +  g  6  X  q  w     %  q  T  )..<  yXX<  <  g        -  #XX#XX-                                                        <  <  <  <  P  T  ,  %     w  %  *  O  +     +           ",
"                  O  >XXO        g  q  A  9  R  }  9  +              -  tXX#XX-                                                           +  9  }  y  9  $..q        0  O  0  .                 ",
"                  +  %  +  g  O  6  0  &  &  7  F  F  }  g           -  -  #XX-                                                        g  }  F  F  7  &  .X.0  6  O     g  h..                  ",
"                        g  X  !        2  g  e  x  Q  +                 -  #XX-                                                           +  Q  l  e  g  2        !  g                          ",
"                              O     2  v..w  0  3  ,  1  aXX@           -  #XX-                                                        aXX1  ,  0  0  w  5  2     O     +                       ",
"         O           +           <     6  %  %  #  7..$  sXX4     :     -  -  -                                               :  9  4  sXX$  7..#  6  %  6     <        +  +           O        ",
"         O  *                          O  %  m  m  dXXfXXgXX4..g  :                                                              g  4..gXXfXXdXXm  m  %  O     .                 +  X  X     +  ",
"   O  X  O     X                    +  *  w  M  e  g  ...5  0  +  :                                                              +  0  m  n  g  e  #  w  *  +                    O     X  O     ",
"   +                                <  +  6  w  0  q  5  ,  +  g  :                                                           :  g  +  ,  5  q  0  w  6  +  <                             +  +  ",
"      .  O  O  +        +  X  X                 .     O  %  .  hXX:                                                           :        %  X     .                 X              6  2     .     ",
"   +     X  X  n  .  O  O  o  *                 k     *  %  O  +  :                                                           :  +  O  O  *     k                 *  X  X        X  X  O     +  ",
"      O  0  n  +     X     +  +                 +           .     :                                                           :     .        g  g                 +  +     O     2  n  O  O     ",
"<           .     O  n                    O  O  2  >XXI..x  ,  g  :                                                           :  .  ,  x  I..,  0  O  O                 !  *        +           ",
"<                                            O  n  W  =  s  [  .  :                                                           :  g  [  s  =  W  n  O                    +                       ",
"                     +           ;  +     +  +  g  @  3  3  .X.0  :                                                           :  0  %  3  3     .  +  +     +  ;                                ",
"                                          q  m  q  I..w  )..}  O  :                                                           :  O  }  )..w  M  n  m  q                                         ",
"                                    g  m  &  u  A  Y  A  #  L..%  :                                                           :  %   . #  Q  i..A  u  &  m  g                                   ",
"                  X  X  *        g  g  %  0  ,  A  H  w  B  jXX^  :                                                           :  %  1..B  w  o..A  ,  0  %  g  g        X  X  O                 ",
"                     O     +              g  +  k  &  }  #..$  R  :                                                           :  R  $  #..}  &  k  +  g              X                          ",
"                     +                    .  3  k  n  4  V..}  k  :                                                           :  k  }  V..4  n  k  3  g              +     +                    "};
