/* XPM */
static char * basechar_xpm[] = {
/* columns rows colors chars-per-pixel */
"64 64 208 3",
"   	c gray4",
".  	c #0A0709",
"X  	c #151815",
"o  	c #120E11",
"O  	c #141313",
"+  	c #060505",
"@  	c #0D0D11",
"#  	c #3B2D2B",
"$  	c #5C4334",
"%  	c #13110E",
"&  	c #190E0B",
"*  	c #1C1B1A",
"=  	c #4D3C34",
"-  	c #240F0B",
";  	c #050609",
":  	c black",
">  	c #543D33",
",  	c #241D1C",
"<  	c #060A0B",
"1  	c #252529",
"2  	c #1A1619",
"3  	c #1B130D",
"4  	c #2B1C14",
"5  	c #2D2925",
"6  	c #120D0C",
"7  	c #533E3B",
"8  	c #5B3D33",
"9  	c #130A03",
"0  	c #1A1513",
"q  	c #24211E",
"w  	c #3B3433",
"e  	c #3B322C",
"r  	c #492D2B",
"t  	c #7C6559",
"y  	c #54443C",
"u  	c #2B211D",
"i  	c #1C1205",
"p  	c #2C2114",
"a  	c #59493A",
"s  	c #4B332B",
"d  	c #353339",
"f  	c #060906",
"g  	c #0A0906",
"h  	c #4E4848",
"j  	c #836B5C",
"k  	c #0A0504",
"l  	c #2A1E22",
"z  	c #141419",
"x  	c #2A1D1C",
"c  	c #2C252A",
"v  	c #856B55",
"b  	c #554235",
"n  	c #252222",
"m  	c #2B2423",
"M  	c #342C2C",
"N  	c #3C3A3A",
"B  	c #3C2C24",
"V  	c #654226",
"C  	c #846654",
"Z  	c #84674D",
"A  	c #353333",
"S  	c #7D6B5C",
"D  	c #8B6A54",
"F  	c #583729",
"G  	c #11070B",
"H  	c #423533",
"J  	c #876758",
"K  	c #8B6D5B",
"L  	c #5B443B",
"P  	c #534442",
"I  	c #433A3A",
"U  	c #2C1B0D",
"Y  	c #312523",
"T  	c #251C15",
"R  	c #4D423D",
"E  	c #1D0709",
"W  	c #4D4442",
"Q  	c #392E32",
"!  	c #262823",
"~  	c #432D2B",
"^  	c #131206",
"/  	c #694838",
"(  	c #886A62",
")  	c #432C1C",
"_  	c #694432",
"`  	c #3C3125",
"'  	c #2E2D32",
"]  	c #2F312E",
"[  	c #83736B",
"{  	c #643C24",
"}  	c #1B0B03",
"|  	c #633D34",
" . 	c #624434",
"...	c #241F29",
"X..	c #8B756B",
"o..	c #43322B",
"O..	c #1A0301",
"+..	c #66372F",
"@..	c #231305",
"#..	c #D4A47C",
"$..	c #120501",
"%..	c #373936",
"&..	c #22130C",
"*..	c #5B3D39",
"=..	c #23151A",
"-..	c #33242A",
";..	c #D2AF8A",
":..	c #321E1B",
">..	c #3B2521",
",..	c #242217",
"<..	c #847263",
"1..	c #3B2B1C",
"2..	c #927158",
"3..	c #CBA585",
"4..	c #321C14",
"5..	c #C2AA8A",
"6..	c #8A715B",
"7..	c #3D3936",
"8..	c #5A4643",
"9..	c #221513",
"0..	c #926A54",
"q..	c #D6A678",
"w..	c #472A14",
"e..	c #3B3439",
"r..	c #1B1D21",
"t..	c #0D120C",
"y..	c #4A3A38",
"u..	c #3B392D",
"i..	c #5B484B",
"p..	c #33231C",
"a..	c #3A2214",
"s..	c #0D1213",
"d..	c #46311B",
"f..	c #1F211D",
"g..	c #342213",
"h..	c #6A3D2D",
"j..	c #1B1916",
"k..	c #2E2632",
"l..	c #5C3C25",
"z..	c #331602",
"x..	c #976937",
"c..	c #CBA16B",
"v..	c #64422D",
"b..	c #342A25",
"n..	c #5C3C2B",
"m..	c #734529",
"M..	c red",
"N..	c #553218",
"B..	c #6A3C1A",
"V..	c #867154",
"C..	c #C5A583",
"Z..	c #321D0C",
"A..	c #0E1003",
"S..	c #976847",
"D..	c #472A0B",
"F..	c #63443B",
"G..	c #7D7167",
"H..	c #342E32",
"J..	c #492D24",
"K..	c #443224",
"L..	c #432E32",
"P..	c #15191A",
"I..	c #553B2C",
"U..	c #D8A36B",
"Y..	c #544944",
"T..	c #6C492C",
"R..	c #713F18",
"E..	c #9B7348",
"W..	c #180F11",
"Q..	c #151414",
"!..	c #211E1E",
"~..	c #292320",
"^..	c #151313",
"/..	c #423A35",
"(..	c white",
")..	c #220C01",
"_..	c #8C6539",
"`..	c #623D2B",
"'..	c #34312D",
"]..	c #28221F",
"[..	c #241E22",
"{..	c #1F2324",
"}..	c #191718",
"|..	c #222020",
" X.	c #0B1218",
".X.	c #1B1919",
"XXX	c #353131",
"oXX	c #1E1C1C",
"OXX	c #313030",
"+XX	c #282526",
"@XX	c #262325",
"#XX	c #2B2929",
"$XX	c #252424",
"%XX	c #2D2A2B",
"&XX	c #312E2F",
"*XX	c #1E1B1B",
"=XX	c #131212",
"-XX	c #050A11",
";XX	c #673D37",
":XX	c #87756F",
">XX	c #2D2A2A",
",XX	c #100C1A",
"<XX	c #5C412C",
"1XX	c #5C4A44",
"2XX	c #693E24",
"3XX	c #714019",
"4XX	c #070611",
"5XX	c #8C7362",
/* pixels */
"            .  X  X  o  O     +     @  O  #  $  %  &  *  =  -  ;  :  :  :  :  :  :  :  :  :  :  :  :  :  :  :  :  :  :  :  :  :  ;  -  >  ,  %  %  $  #  O  @     +     O  O  o  O              ",
"            <  +  .  1  2  O  +        X  3  4  5     +  6  7  >  :  :  :  :  :  :  :  :  :  :  :  :  :  :  :  :  :  :  :  :  :  >  8  o  +  9  5  4  3  X        +  0  O  ,  .  <              ",
"               <     +        .           q  w  e  r  t  y  u  i  :  :  :  :  :  :  :  :  :  :  :  :  :  :  :  :  :  :  :  :  :  3  p  a  t  s  d  w  q           f           .     +           ",
"         O     0  O  %  2  g  .        X  0  h  y  j  k  5  l  z  :  :  :  :  :  :  :  :  :  :  :  :  :  :  :  :  :  :  :  :  :  O  x  c  k  v  b  h  0  X           +  O  %  *  +  +           ",
"+     n  n  c  w  m  5  M  e  6     g     0  0  %  N  B  V  C  g  :  :  :  :  :  :  :  :  :  :  :  :  :  :  :  :  :  :  :  :  :  g  Z  V  B  w  O  0  0     g     6  w  w  x  M  A  m  m  2     ",
"   ;     O  9  y  t  S  D  F  0  @     %  ,  +  G  A  c  H  u     :  :  :  :  :  :  :  :  :  :  :  :  :  :  :  :  :  :  :  :  :  .  u  H  5  A  G  .  ,  %     @  0  J  K  j  L  P  9  %     +  ",
"      g  2  m  H  I  U  Y  0  %  3  T  n  q  w  x  e  #  u  R  E  :  :  :  :  :  :  :  :  :  :  :  :  :  :  :  :  :  :  :  :  :  E  W  x  B  e  l  w  ,  n  T  3  %  9  4  x  Q  #  T     +     ",
"+     O  !  w  w  A  A  ~  y  ^  ;  @  n  w  #  Q  e  /  (  )  K  :  :  :  :  :  :  :  :  :  :  :  :  :  :  :  :  :  :  :  :  :  K  )  (  _  `  A  #  w  n  @  ;  ^  r  l  '  ]  T  A  q  O     ",
"+     .  .  n  w  b  (  [  u  &  B  #  Q  9  T  T  U  {  8  !  <  :  :  :  :  :  :  :  :  :  :  :  :  :  :  :  :  :  :  :  :  :  <  !  8  {  U  ,  T  9  Q  #  B  &  x  j  C  a  l  m           ",
"<     O  6  o  2  .  T  }  8  |   . D  v  }  2  ...O  ~  X..m  @  :  :  :  :  :  :  :  :  :  :  :  :  :  :  :  :  :  :  :  :  :     5  X..o..O  l  2  O..D  D   . +..b  k  Y     o  +  n  O     ",
";  6  @..}  #..1  ...#  o..e  $..w  w  u  .  g  0  0  w  P  q  g  :  :  :  :  :  :  :  :  :  :  :  :  :  :  :  :  :  :  :  :  :  g  q  P  w  0  0  g  ;  m  %..e  9  e  `  x  ...A  9  y  }  +  ",
"o  P  L  &..O  +  x  *..K  =..+  -..&  9  ;..*     w  0  M  %  O  :  :  :  :  :  :  :  :  :  :  :  :  :  :  :  :  :  :  :  :  :  O  %  M  0  A     2  ;..}  }  -..+  :..J  >..,..O  3  <..>  h  ",
"+  &  #  e  a  }  w  1..b  $  K  J  2..3..4..}  O  c  2  n  %  2  :  :  :  :  :  :  :  :  :  :  :  :  :  :  :  :  :  :  :  :  :  2  %  n  2  c  O  }  4  5..2..j  6..b  $  o..7..8..R  o..9..T  ",
";  n  A  H  ~  L  O..0..q..4..   e  B  a  $  l  O  .  m  n        :  :  :  :  :  :  :  :  :  :  :  :  :  :  :  :  :  :  :  :  :        q  !  .  0  l  $  P  B  #     w..q..2..k  $  o..M  e..r..",
"t..+  m  T  u  T  A  x  y..m  f  *..3..w..:  H  u  9..6  6  o     :  :  :  :  :  :  :  :  :  :  :  :  :  :  :  :  :  :  :  :  :     o  6  6  9..u  u..g  w..3..y  <  M  i..p..c  a..3  ,  0  s..",
"O  0  &  n  0  P  0..0..d..0  k  f..A  0  :  :  y  S  g..u  n     :  :  :  :  :  :  :  :  :  :  :  :  :  :  :  :  :  :  :  :  :     n  u  g..t  L  s  Y  O  A  ,  k  3  6..0..h..W  o  m  m  0  ",
"g  0  q  w  M  +  x  )  j..u  k..9  m  s  l..z..:  x..c..@..z  <  :  :  :  :  :  :  :  :  :  :  :  :  :  :  :  :  :  :  :  :  :  <  O  @..c..x..v..z..l..s  m  9  k..x  x  w..q  M  b..u  u  9  ",
"O  m  H  u  w  7..a  X  9.. .  . P  n..m..c..=..O  :  7..s..0                       M..M..M..M..M..M..M..M..M..M..                     O  I  %  s..=..c..m..n..P   . *..n  m  B  w  M  w  N  ,  ",
"   ,  7  F  N..B..3..'  e..-..w  V..C..Z..e  ^  0  :  :  j..A..                  M..M..5..5..5..5..5..5..5..5..-  M..                  X  0  3  3  ^  e  Z..C..V..w  -..A  k  S..D..D..F..o..n  ",
"1..G..u  n  H..x  J..N..N..K..g  x  5  i  L..k  P..X  g  :                 M..M..5..5..5..5..5..5..5..M..M..M..M..                     *     P..P..$..L..i  5  x  g  )  m..v..I..c  n  n  9  y  ",
"H  5  +  X  5  B  a..U..#..P  k  Y..T..R..V  1..2  m                    M..5..5..5..5..5..5..5..M..M..M..                              ...,..q  O  1..V  R..T..8..+  $  U..E..b  0  M  <  O  w  ",
",  0     +  0  w  ,  #  b..n  j..O  0  n  w  w  +     O  X           M..5..5..5..5..5..5..5..M..                                       X  O     +  w  w  n  0  O  0  6  y  W  3  3  0  2     W..",
"b  B  T  X     2  ,  x  5  f  +  O  .  0  0  g     O     O           M..5..5..5..5..Q..!..M..                                                O     g  0  0  .  O  +     3  x  O  n  +  O  u  s  ",
"0  n  n  6  6  m  *  M  .  O  <  j..M  A  m  %  +        O  <        M..~..5..!..Q..Q..^..M..                                                   +  %  m  A  M  j...     O  l  o  5  k  n  n  m  ",
"T  &  /..,  2  0  +     X  o     O  +  0  n        +                    M..-  Q..Q..(..(..M..                                                +        n  0  +  O     O  0  .  n  O  n  m  w  3  ",
".  A  w  y  )..4  k  %  m  6     %  X  .  .  X                          M..-  Q..Q..Q..Q..-  M..M..                                                X  .  .  X  %  .  X  O  j..*  g..@..y  w  A  ",
"k  T  o..F  V  E..)..%     6  @     %  O  0  6  O  0  5     +        M..-  -  Q..Q..Q..Q..[  [  [  M..M..                                 m  0  O  6  0  O  %     @  j..X  @..#.._..v..F..u  6  ",
"`..0..w..H  4  )  k  O  O  %     %  O  O  '..g  0  +  X  .        M..M..^..Q..Q..Q..Q..Q..Q..Q..]..[  [  M..M..M..                     .  X  +  0  g  '..O  O  %     6  @  X  @..a..u  4  C..{  ",
"D  `  '..^  n  d  O  @  %  6  [..O  O  !  O  g  +              M..-  ^..Q..Q..Q..Q..Q..Q..Q..Q..-  -  ~..[  [  [  M..                           +  g  O  !  O  O  *  6  O  <  2  n  u  q  '..d..",
"O  Y  6  {..O  T  O  %  %  O  .  .  %  %  j..+  g              M..^..Q..Q..Q..Q..Q..Q..Q..Q..}..-  -  -  |..!..[  [  M..M..                     g  +  j..%  %  .     0  j..%  0  u   X.{..#  ,  ",
"'..o  2  3  T  0  &  5  w  n  g  0  0  6  O  *  +  O           M..Q..Q..Q..Q..Q..Q..Q..Q...X.!..XXX-  oXXOXX-  -  [  [  [  M..               O  f  *  O  6  j..0  g  M  n  T  6  0  0  l     2  ",
"g  m  0  %  O     .  o  X              O  O  X                 M..Q..Q..Q..Q..Q..Q..Q..-  +XX-  @XX|..XXXM..M..M..M..M..[  [  M..M..M..            X  O  O              X  X     s..g  j..,  q  ",
"A  e  B  9  +  ;     .     g                                   M..^..Q..Q..Q..Q..^..#XX$XX-  -  -  !..-  M..         M..M..M..[  [  M..                              g        g  @  k  t  o..#  ",
"m  m  9..M  k  .        g  g  <                                M..^..Q..Q..Q..^..oXX%XX|..&XXM..M..M..M..                  M..M..M..M..                           <  g  g  <     g  &  #  x  m  ",
"X  n  A  0  u  k  9  f  <     g                                M..^..Q..Q..Q..^..-  *XX-  M..M..                                                                  g     ;  +  $..9  &  0  w  O  ",
"+     0  0  u  e  a  $..   <  k                                M..^..Q..Q..Q..=XX-  *XX:  M..                                                                     g  -XX.  $..>  e  &  %  X  +  ",
"+     !     0  w  o.._  $..f                                   M..^..Q..Q..Q..=XX*XX*XX:  M..                                                                        g  (  ;XXM  e  6  2  @  +  ",
";  f  O  m  m  e  e  o..<..9                                   M..=XXQ..Q..Q..^..M..M..M..M..                                                                        9  y  `  p..M  q  n  %     ",
"      %  6  g  u  4  4  $..k                                   M..M..Q..Q..Q..^..M..                                                                                 :XX4  4  T  q  k  0        ",
"         O  w  n  q  w  R  k  +                                   M..^..Q..Q..^..M..                                                                              +  9  e  ,  ,  q  0  O     +  ",
"         X     O  e  &  0  +                                      M..^..Q..Q..^..M..                                                                                 X  6  &  6     O     +     ",
"            O     ;  -XX0  H  g                                   M..^..Q..Q..Q..M..                                                                              .  u  2  -XX                  ",
"               A  >XX+  k  W  $..      <        <  <              M..=XXQ..Q..=XXM..                                                         <  <     g  <        $..6  k  .  7..O              ",
"            X  n  n  m  5  u  B  l  l  ,  w  W  k  g  g  g  g     M..M..Q..Q..M..M..                                                   g  g  g  k  W  w  ,  l  l  B  T  n  O  m  X  O           ",
"            +  +  g  6  X  q  w     %  q  T  Y..<  -XX<  <  g        M..^..^..M..                                                      <  <  <  <  P  T  ,  %     w  %  *  O  +     +           ",
"                  O  [..O        g  q  A  9  R  }  9  +              M..=XX^..M..                                                         +  9  }  y  9  %..q        0  O  0  .                 ",
"                  +  %  +  g  O  6  0  &  &  7  F  F  }  g           M..M..^..M..                                                      g  }  F  F  7  &  W..0  6  O     g  j..                  ",
"                        g  X  !        2  g  e  x  Q  +                 M..^..M..                                                         +  Q  l  e  g  2        !  g                          ",
"                              O     2  b..w  0  3  ,  1  ,XX@           M..^..M..                                                      ,XX1  ,  0  0  w  5  2     O     +                       ",
"         O           +           <     6  %  %  #  8..$  <XX4     :     M..M..M..                                             :  9  4  <XX$  8..#  6  %  6     <        +  +           O        ",
"         O  *                          O  %  m  m  1XX2XX3XX5..g  :                                                              g  5..3XX2XX1XXm  m  %  O     .                 +  X  X     +  ",
"   O  X  O     X                    +  *  w  M  e  g  ...5  0  +  :                                                              +  0  m  n  g  e  #  w  *  +                    O     X  O     ",
"   +                                <  +  6  w  0  q  5  ,  +  g  :                                                           :  g  +  ,  5  q  0  w  6  +  <                             +  +  ",
"      .  O  O  +        +  X  X                 .     O  %  .  4XX:                                                           :        %  X     .                 X              6  2     .     ",
"   +     X  X  n  .  O  O  o  *                 k     *  %  O  +  :                                                           :  +  O  O  *     k                 *  X  X        X  X  O     +  ",
"      O  0  n  +     X     +  +                 +           .     :                                                           :     .        g  g                 +  +     O     2  n  O  O     ",
"<           .     O  n                    O  O  2  [..H..x  ,  g  :                                                           :  .  ,  x  H..,  0  O  O                 !  *        +           ",
"<                                            O  n  W  =  s  [  .  :                                                           :  g  [  s  =  W  n  O                    +                       ",
"                     +           ;  +     +  +  g  @  3  3  W..0  :                                                           :  0  %  3  3     .  +  +     +  ;                                ",
"                                          q  m  q  H..w  Y..}  O  :                                                           :  O  }  Y..w  M  n  m  q                                         ",
"                                    g  m  &  u  A  Y  A  #  F..%  :                                                           :  %   . #  Q  p..A  u  &  m  g                                   ",
"                  X  X  *        g  g  %  0  ,  A  H  w  B  5XX^  :                                                           :  %  2..B  w  o..A  ,  0  %  g  g        X  X  O                 ",
"                     O     +              g  +  k  &  }  $..$  R  :                                                           :  R  $  $..}  &  k  +  g              X                          ",
"                     +                    .  3  k  n  4  Z..}  k  :                                                           :  k  }  Z..4  n  k  3  g              +     +                    "};
