/* XPM */
static char * base_xpm[] = {
/* columns rows colors chars-per-pixel */
"64 64 188 3",
"   	c black",
".  	c gray4",
"X  	c #0A0906",
"o  	c #0D0D11",
"O  	c #0A0504",
"+  	c #7C6559",
"@  	c #43322B",
"#  	c #3B2D2B",
"$  	c #353333",
"%  	c #3B322C",
"&  	c #3C2C24",
"*  	c #130A03",
"=  	c #060505",
"-  	c #050609",
";  	c #0A0709",
":  	c #060A0B",
">  	c #190E0B",
",  	c #2A1D1C",
"<  	c #2B2423",
"1  	c #221513",
"2  	c #342C2C",
"3  	c #120501",
"4  	c #1A1513",
"5  	c #3B3433",
"6  	c #141313",
"7  	c #151815",
"8  	c #252222",
"9  	c #2B211D",
"0  	c #060906",
"q  	c #050A11",
"w  	c #543D33",
"e  	c #13110E",
"r  	c #59493A",
"t  	c #886A62",
"y  	c #673D37",
"u  	c #120D0C",
"i  	c #1A1619",
"p  	c #262823",
"a  	c #694432",
"s  	c #54443C",
"d  	c #3C3125",
"f  	c #33231C",
"g  	c #24211E",
"h  	c #847263",
"j  	c #87756F",
"k  	c #2B1C14",
"l  	c #251C15",
"z  	c #241D1C",
"x  	c #4D423D",
"c  	c #423533",
"v  	c #3D3936",
"b  	c #2D2A2A",
"n  	c #4D4442",
"m  	c #2A1E22",
"M  	c #2D2925",
"N  	c #534442",
"B  	c #1C1B1A",
"V  	c #544944",
"C  	c #1B0B03",
"Z  	c #373936",
"A  	c #241E22",
"S  	c #583729",
"D  	c #533E3B",
"F  	c #180F11",
"G  	c #1B1916",
"H  	c #392E32",
"J  	c #100C1A",
"K  	c #252529",
"L  	c #342A25",
"P  	c #1B130D",
"I  	c #5C412C",
"U  	c #5C4334",
"Y  	c #5A4643",
"T  	c #C2AA8A",
"R  	c #714019",
"E  	c #693E24",
"W  	c #5C4A44",
"Q  	c #241F29",
"!  	c #070611",
"~  	c #120E11",
"^  	c #342E32",
"/  	c #83736B",
"(  	c #4B332B",
")  	c #4D3C34",
"_  	c #624434",
"`  	c #312523",
"'  	c #63443B",
"]  	c #927158",
"[  	c #8C7362",
"{  	c #131206",
"}  	c #321D0C",
"|  	c #240F0B",
" . 	c #5B3D33",
"...	c #2C2114",
"X..	c #353339",
"o..	c #492D2B",
"O..	c #1C1205",
"+..	c #2C252A",
"@..	c #856B55",
"#..	c #554235",
"$..	c #4E4848",
"%..	c #836B5C",
"&..	c #141419",
"*..	c #84674D",
"=..	c #654226",
"-..	c #3C3A3A",
";..	c #846654",
":..	c #11070B",
">..	c #876758",
",..	c #8B6D5B",
"<..	c #5B443B",
"1..	c #7D6B5C",
"2..	c #8B6A54",
"3..	c #1D0709",
"4..	c #433A3A",
"5..	c #2C1B0D",
"6..	c #432C1C",
"7..	c #2E2D32",
"8..	c #2F312E",
"9..	c #432D2B",
"0..	c #694838",
"q..	c #643C24",
"w..	c #8B756B",
"e..	c #1A0301",
"r..	c #66372F",
"t..	c #633D34",
"y..	c #231305",
"u..	c #D2AF8A",
"i..	c #33242A",
"p..	c #321E1B",
"a..	c #3B2521",
"s..	c #242217",
"d..	c #22130C",
"f..	c #5B3D39",
"g..	c #23151A",
"h..	c #8A715B",
"j..	c #3B2B1C",
"k..	c #CBA585",
"l..	c #321C14",
"z..	c #472A14",
"x..	c #D6A678",
"c..	c #3B3439",
"v..	c #1B1D21",
"b..	c #926A54",
"n..	c #3B392D",
"m..	c #5B484B",
"M..	c #3A2214",
"N..	c #0D1213",
"B..	c #0D120C",
"V..	c #4A3A38",
"C..	c #342213",
"Z..	c #6A3D2D",
"A..	c #46311B",
"S..	c #1F211D",
"D..	c #351F24",
"F..	c #CBA16B",
"G..	c #976937",
"H..	c #64422D",
"J..	c #331602",
"K..	c #5C3C25",
"L..	c #2E2632",
"P..	c #734529",
"I..	c #5C3C2B",
"U..	c #C5A583",
"Y..	c #867154",
"T..	c #976847",
"R..	c #472A0B",
"E..	c #553218",
"W..	c #6A3C1A",
"Q..	c #0E1003",
"!..	c #15191A",
"~..	c #432E32",
"^..	c #553B2C",
"/..	c #7D7167",
"(..	c #492D24",
")..	c #443224",
"_..	c #713F18",
"`..	c #6C492C",
"'..	c #D8A36B",
"]..	c #9B7348",
"[..	c #D4A47C",
"{..	c #423A35",
"}..	c #220C01",
"|..	c #8C6539",
" X.	c #34312D",
".X.	c #623D2B",
"XXX	c #0B1218",
"oXX	c #1F2324",
/* pixels */
"                                 .  .  .  .  .  .  .  .  .  .  .  .  X  .  .  X  o  O  +  @  #  $  %  &  *  =  -  .  ;  .  X  .  .  .  .  .  .  .  .  .  .  .  .                                ",
"                                 .  .  .  .  .  .  .  .  .  .  .  :  X  X  :  .  X  >  #  ,  <  <  <  1  2  O  ;  .  .  X  X  :  .  .  .  .  .  .  .  .  .  .  .                                ",
"                                 .  .  .  .  .  .  .  .  .  .  .  X  .  -  =  3  *  >  4  5  6  7  8  $  4  9  O  *  0  :  .  X  .  .  .  .  .  .  .  .  .  .  .                                ",
"                                 .  .  .  .  .  .  .  .  .  .  .  X  q  ;  3  w  %  >  e  7  =  =  .  4  4  9  %  r  3  .  :  O  .  .  .  .  .  .  .  .  .  .  .                                ",
"                                 .  .  .  .  .  .  .  .  .  .  .  .  X  t  y  2  %  u  i  o  =  =  .  p  .  4  5  @  a  3  0  .  .  .  .  .  .  .  .  .  .  .  .                                ",
"                                 .  .  .  .  .  .  .  .  .  .  .  .  *  s  d  f  2  g  8  e  .  -  0  6  <  <  %  %  @  h  *  .  .  .  .  .  .  .  .  .  .  .  .                                ",
"                                 X  .  .  .  .  .  .  .  .  .  .  .  j  k  k  l  g  O  4  .  .  .  .  e  u  X  9  k  k  3  O  .  .  .  .  .  .  .  .  .  .  .  .                                ",
"                                 X  .  .  .  .  .  .  .  .  .  .  =  *  %  z  z  g  4  6  .  =  .  .  .  6  5  8  g  5  x  O  =  .  .  .  .  .  .  .  .  .  .  .                                ",
"                                 X  .  .  .  .  .  .  .  .  .  .  .  7  u  >  u  .  6  .  =  .  .  .  .  7  .  6  %  >  4  =  .  .  .  .  .  .  .  .  .  .  .  .                                ",
"                                 *  .  .  .  .  .  .  .  .  .  .  ;  9  i  q  .  .  .  .  .  .  .  .  .  .  6  .  -  q  4  c  X  .  .  .  .  .  .  .  .  .  .  .                                ",
"                                 X  .  .  .  :  :  .  X  :  .  .  3  u  O  ;  v  6  .  .  .  .  .  .  .  .  .  $  b  =  O  n  3  .  .  :  .  .  :  :  .  .  .  .                                ",
"                                 X  .  X  X  X  O  n  5  z  m  m  &  l  8  6  <  7  6  .  .  .  .  .  .  .  7  8  8  <  M  9  &  m  m  z  5  n  O  X  X  X  X  X                                ",
"                                 3  X  :  :  :  :  N  l  z  e  .  5  e  B  6  =  .  =  .  .  .  .  .  .  .  =  =  X  u  7  g  5  .  e  g  l  V  :  q  :  :  X  X                                ",
"                                 .  .  .  =  *  C  s  *  Z  g  .  .  4  6  4  ;  .  .  .  .  .  .  .  .  .  .  .  6  A  6  .  .  X  g  $  *  x  C  *  =  .  .  .                                ",
"                                 .  .  X  C  S  S  D  >  F  4  u  6  .  X  G  .  .  .  .  .  .  .  .  .  .  .  .  =  e  =  X  6  u  4  >  >  D  S  S  C  X  .  .                                ",
"                                 X  X  .  =  H  m  %  X  i  .  .  p  X  .  .  .  .  .  .  .  .  .  .  .  .  .  .  .  .  X  7  p  .  .  i  X  %  ,  H  =  .  .  X                                ",
"                                 .  o  J  K  z  4  4  5  M  i  .  6  .  =  .  .  .  .  .  .  .  .  .  .  .  .  .  .  .  .  .  6  .  i  L  5  4  P  z  K  J  o  .                                ",
"                                 *  k  I  U  Y  #  u  e  u  .  :  .  .  =  =  .  .  .  6  .  .  .  .  .  6  .  .  .  =  .  .  .  :  .  u  e  e  #  Y  U  I  k  .                                ",
"                                 X  T  R  E  W  <  <  e  6  .  ;  .  .  .  .  .  =  7  7  .  =  .  .  .  6  B  .  .  .  .  .  .  .  .  6  e  <  <  W  E  R  T  X                                ",
"                                 =  4  <  8  X  %  #  5  B  =  .  .  .  .  .  .  6  .  7  6  .  .  6  7  6  .  7  .  .  .  .  .  .  =  B  5  2  %  X  Q  M  4  =                                ",
"                                 X  =  z  M  g  4  5  u  =  :  .  .  .  .  .  .  .  .  .  =  =  .  =  .  .  .  .  .  .  .  .  .  .  :  =  u  5  4  g  M  z  =  X                                ",
"                                 .  .  e  7  .  ;  .  .  .  .  .  7  .  .  .  .  u  i  .  ;  .  .  .  ;  6  6  =  .  .  =  7  7  .  .  .  .  .  ;  .  6  e  ;  !                                ",
"                                 =  6  6  B  .  O  .  .  .  .  .  B  7  7  .  .  7  7  6  .  =  .  =  .  7  7  8  ;  6  6  ~  B  .  .  .  .  .  O  .  B  e  6  =                                ",
"                                 .  ;  .  .  X  X  .  .  .  .  .  =  =  .  6  .  i  8  6  6  .  .  .  6  4  8  =  .  7  .  =  =  .  .  .  .  .  =  .  .  .  ;  .                                ",
"                                 ;  z  ,  ^  z  4  6  6  .  .  .  .  .  p  B  .  .  =  .  .  .  :  .  .  .  ;  .  6  8  .  .  .  .  .  .  6  6  i  A  ^  ,  z  X                                ",
"                                 X  /  (  )  n  8  6  .  .  .  .  .  .  =  .  .  .  .  .  .  .  :  .  .  .  .  .  .  .  .  .  .  .  .  .  .  6  8  n  )  (  /  ;                                ",
"                                 4  e  P  P  .  ;  =  =  .  =  -  .  .  .  .  .  .  .  .  .  .  .  .  .  .  .  .  .  =  .  .  .  -  =  .  =  =  X  o  P  P  F  4                                ",
"                                 6  C  V  5  2  8  <  g  .  .  .  .  .  .  .  .  .  .  .  .  .  .  .  .  .  .  .  .  .  .  .  .  .  .  .  g  <  g  ^  5  V  C  6                                ",
"                                 e  _  #  H  f  $  9  >  <  X  .  .  .  .  .  .  .  .  .  .  .  .  .  .  .  .  .  .  .  .  .  .  .  X  <  >  9  $  `  $  #  '  e                                ",
"                                 e  ]  &  5  @  $  z  4  e  X  X  .  .  7  7  6  .  .  .  .  .  .  .  .  .  .  .  7  7  B  .  .  X  X  e  4  z  $  c  5  &  [  {                                ",
"                                 x  U  3  C  >  O  =  X  .  .  .  .  7  .  .  .  .  .  .  .  .  .  .  .  .  .  .  .  6  .  =  .  .  .  .  X  =  O  >  C  3  U  x                                ",
"                                 O  C  }  k  8  O  P  X  .  .  .  .  =  .  =  .  .  .  .  .  .  .  .  .  .  .  .  .  =  .  .  .  .  .  .  ;  P  O  8  k  }  C  O                                ",
"                                 -  |  w  z  e  e  U  #  6  o  .  =  .  6  6  ~  6  .  .  .  .  .  .  .  .  ;  7  7  ~  6  .  =  .  o  6  #  U  e  >  B  )  |  -                                ",
"                                 w   . ~  =  *  M  k  P  7  .  .  =  4  6  z  ;  :  .  .  .  .  .  .  .  .  :  =  ;  K  i  6  =  .  .  7  P  k  M  .  =  u  D  w                                ",
"                                 P  ...r  +  (  X..5  g  .  .  .  0  .  .  .  ;  .  =  .  .  .  .  .  .  .  .  :  .  =  .  .  ;  .  .  .  g  5  %  o..+  s  9  O..                              ",
"                                 6  ,  +..O  @..#..$..4  7  .  .  .  =  6  e  B  =  =  .  .  .  .  .  .  6  .  4  6  e  i  X  ;  .  .  7  4  $..s  %..O  M  m  &..                              ",
"                                 X  *..=..&  5  6  4  4  .  X  .  u  5  5  ,  2  $  <  <  i  .  =  .  8  8  +..5  <  M  2  %  u  .  X  .  4  4  e  -..&  =..;..X                                ",
"                                 ;  9  c  M  $  :..;  z  e  .  o  4  >..,..%..<..N  *  e  .  =  .  -  .  6  *  s  +  1..2..S  4  o  .  e  z  =  :..$  +..c  9  .                                ",
"                                 3..n  ,  &  %  m  5  z  8  l  P  e  *  k  ,  H  #  l  .  =  .  .  .  X  i  <  c  4..5..`  4  e  P  l  8  g  5  ,  %  #  9  x  3..                              ",
"                                 ,..6..t  a  d  $  #  5  8  o  -  {  o..m  7..8..l  $  g  6  .  =  .  6  p  5  5  $  $  9..s  {  -  o  8  5  #  H  %  0..t  6..,..                              ",
"                                 :  p   . q..5..z  l  *  H  #  &  >  ,  %..;..r  m  <  .  .  .  =  .  ;  ;  8  5  #..t  /  9  >  &  #  H  *  l  l  5..q.. . p  :                                ",
"                                 .  M  w..@  6  m  i  e..2..2.._  r..#..O  `  .  ~  =  8  6  .  :  .  6  u  ~  i  ;  l  C   . t.._  2..@..C  i  Q  6  9..w..<  o                                ",
"                                 X  g  N  5  4  4  X  -  <  Z  %  *  %  d  ,  Q  $  *  s  C  =  -  u  y..C  O  K  Q  #  @  %  3  5  5  9  ;  X  4  4  5  N  g  X                                ",
"                                 6  e  2  4  $  .  i  u..C  C  i..=  p..>..a..s..6  P  h  w  $..~  N  <..d..6  =  ,  f..,..g..=  i..>  *  u..B  .  5  4  2  e  6                                ",
"                                 i  e  8  i  +..6  C  k  T  ]  %..h..#..U  @  v  Y  x  @  1  l  =  >  #  %  r  C  5  j..#..U  ,..>..]  k..l..C  6  +..i  8  e  i                                ",
"                                 .  .  g  p  ;  4  m  U  N  &  #  .  z..x..]  O  U  @  2  c..v..-  8  $  c  9..<..e..b..x..l...  %  &  r  U  m  6  ;  <  8  .  .                                ",
"                                 .  ~  u  u  1  9  n..X  z..k..s  :  2  m..f  +..M..P  z  4  N..B..=  <  l  9  l  $  ,  V..<  0  f..k..z..X  c  9  1  u  u  ~  .                                ",
"                                 .  8  9  C..+  <..(  `  6  $  z  O  P  h..b..Z..n  ~  <  <  4  6  4  >  8  4  N  b..b..A..4  O  S..$  4  D..c  s  1..C..9  8  .                                ",
"                                 :  6  y..F..G..H..J..K..(  <  *  L..,  ,  z..g  2  L  9  9  *  X  4  g  5  2  =  ,  6..G  9  L..*  <  (  K..J..H..G..F..y..&..:                                ",
"                                 X  7  6  4..e  N..g..F..P..I..N  _  f..8  <  &  5  2  5  -..z  6  <  c  9  5  v  r  7  1  _  _  N  I..P..F..g..6  e  v  N..4  3                                ",
"                                 6  .  7  4  P  P  {  %  }  U..Y..5  i..$  O  T..R..R..'  @  8  .  z  D  S  E..W..k..7..c..i..5  Y..U..}  %  {  4  4  4  G  Q..e                                ",
"                                 ;  u  B  .  !..!..3  ~..O..M  ,  X  6..P..H..^..+..8  8  *  s  j../..9  8  ^  ,  (..E..E..)..X  ,  M  O..~..O  !..7  X  z  ~  !                                ",
"                                 0  .  Q  s..g  6  j..=.._..`..Y  =  U  '..]..#..4  2  :  6  5  c  M  =  7  M  &  M..'..[..N  O  V  `.._..=..j..i  <  g  8  .  X                                ",
"                                 .  .  7  6  .  =  5  5  8  4  6  4  u  s  n  P  P  4  i  .  F  z  4  .  =  4  5  z  #  L  8  G  6  4  8  5  5  =  .  6  7  .  .                                ",
"                                 .  .  6  .  6  .  X  4  4  ;  6  =  .  P  ,  6  8  =  6  9  (  #..&  l  7  .  i  z  ,  M  0  =  6  ;  4  4  X  .  6  .  6  .  .                                ",
"                                 .  .  6  .  .  =  e  <  $  2  G  ;  .  6  m  ~  M  O  8  8  <  4  8  8  u  u  <  B  2  ;  6  :  G  2  $  <  e  =  .  .  6  :  .                                ",
"                                 .  .  .  .  =  .  .  8  4  =  6  .  6  4  ;  8  6  8  <  5  P  l  >  {..z  i  4  =  .  7  ~  .  6  =  4  8  .  .  =  .  .  .  .                                ",
"                                 .  .  .  .  .  .  7  ;  ;  7  e  ;  7  6  G  B  C..y..s  5  $  ;  $  5  s  }..k  O  e  <  u  .  e  7  ;  ;  7  .  .  .  .  .  .                                ",
"                                 :  =  .  <  4  6  u  4  6  e  .  o  G  7  y..[..|..H..'  9  u  O  l  @  S  =..]..}..e  .  u  o  .  e  6  4  u  6  4  M  .  =  :                                ",
"                                 .  .  ;  7  =  4  X   X.6  6  e  .  u  o  7  y..M..9  k  U..q...X.b..z..c  k  6..O  6  6  e  .  e  6  6   X.X  4  =  7  ;  .  .                                ",
"                                 =  .  .  .  .  =  X  6  p  6  6  B  u  6  :  i  8  9  g   X.A..2..d   X.{  8  X..6  o  e  u  A  6  6  p  6  X  =  .  .  .  .  =                                ",
"                                 .  .  .  .  .  X  =  G  e  e  ;  .  4  G  e  4  9  XXXoXX#  z  6  `  u  oXX6  l  6  e  e  6  ;  ;  e  e  G  =  X  .  .  .  .  .                                ",
"                                 .  .  .  .  6  0  B  6  u  G  4  X  2  8  l  u  4  4  m  .  i   X.~  i  P  l  4  >  M  5  8  X  4  4  u  6  B  =  6  .  .  .  .                                ",
"                                 .  .  .  .  .  .  7  6  6  .  .  .  .  7  7  .  N..X  G  z  g  X  <  4  e  6  .  ;  ~  7  .  .  .  .  6  6  7  .  .  .  .  .  .                                "};
