/* XPM */
static char * collectable_xpm[] = {
/* columns rows colors chars-per-pixel */
"64 64 17 1",
" 	c None",
".	c #0F0B0D",
"X	c #561D29",
"o	c #7D3237",
"O	c #66292D",
"+	c #471822",
"@	c #481A23",
"#	c #B36A69",
"$	c #581F2A",
"%	c #FF825E",
"&	c #FFC58E",
"*	c #141114",
"=	c #1B171B",
"-	c #1B1114",
";	c #141013",
":	c #FF8B6A",
">	c #1A1418",
/* pixels */
"                                                                ",
"                                                                ",
"                                                                ",
"                                                                ",
"                                                                ",
"                                                                ",
"              ......                                            ",
"            ..XooooO..                                          ",
"           .XoooooooXX.                                         ",
"          .+oooooooooo.                                         ",
"         .@XXoo#oooo#oO.                                        ",
"         .XXXoo#o##o#o#.                                        ",
"        .+XXXoo#o##X.X#.                                        ",
"        .XXXoooXo#o+.++.                                        ",
"        .XXoooo.+X+....                                         ",
"        .X$oooX....%%.                                          ",
"        .XXoooX.%%%&&.                                          ",
"       .+XXoooX.%&&&.                                           ",
"       .XXXooo+.....                                            ",
"       .XXXooX.....                                             ",
"       .+XXXo+..*=*.                                            ",
"        .XXX+..*===*.                                           ",
"        .XXX..*.==.=.                                           ",
"        .XXX..=.==.=.                                           ",
"        .XXX..-.--.=.                                           ",
"        .+XX..-.--.-.                                           ",
"         .XX..=.==.-;.                                          ",
"         .XX..=.==.-=.                                          ",
"         .+X..=....-=.                                          ",
"          .X..-.::.-=.                                          ",
"          .+..=.:&.==.                                          ",
"           ..*=....==*.                                         ",
"           ..===..==--.                                         ",
"           .*===-===>=.                                         ",
"          .;====--===-;.                                        ",
"          .-====>-===>-.                                        ",
"          .;*=======>;;.                                        ",
"           ...**==**...                                         ",
"             ........                                           ",
"              ..  ..                                            ",
"              ..  ..                                            ",
"              ..  ..                                            ",
"                                                                ",
"                                                                ",
"                                                                ",
"                                                                ",
"                                                                ",
"                                                                ",
"                                                                ",
"                                                                ",
"                                                                ",
"                                                                ",
"                                                                ",
"                                                                ",
"                                                                ",
"                                                                ",
"                                                                ",
"                                                                ",
"                                                                ",
"                                                                ",
"                                                                ",
"                                                                ",
"                                                                ",
"                                                                "};
