/* XPM */
static char * em3b_xpm[] = {
/* columns rows colors chars-per-pixel */
"64 64 183 2",
"  	c gray4",
". 	c #0A0709",
"X 	c #151815",
"o 	c #120E11",
"O 	c #141313",
"+ 	c #060505",
"@ 	c #0D0D11",
"# 	c #3B2D2B",
"$ 	c #5C4334",
"% 	c #13110E",
"& 	c #190E0B",
"* 	c #1C1B1A",
"= 	c #4D3C34",
"- 	c #240F0B",
"; 	c #050609",
": 	c black",
"> 	c #543D33",
", 	c #241D1C",
"< 	c #060A0B",
"1 	c #252529",
"2 	c #1A1619",
"3 	c #1B130D",
"4 	c #2B1C14",
"5 	c #2D2925",
"6 	c #120D0C",
"7 	c #533E3B",
"8 	c #5B3D33",
"9 	c #130A03",
"0 	c #1A1513",
"q 	c #24211E",
"w 	c #3B3433",
"e 	c #3B322C",
"r 	c #492D2B",
"t 	c #7C6559",
"y 	c #54443C",
"u 	c #2B211D",
"i 	c #1C1205",
"p 	c #2C2114",
"a 	c #59493A",
"s 	c #4B332B",
"d 	c #353339",
"f 	c #060906",
"g 	c #0A0906",
"h 	c #4E4848",
"j 	c #836B5C",
"k 	c #0A0504",
"l 	c #2A1E22",
"z 	c #141419",
"x 	c #2A1D1C",
"c 	c #2C252A",
"v 	c #856B55",
"b 	c #554235",
"n 	c #252222",
"m 	c #2B2423",
"M 	c #342C2C",
"N 	c #3C3A3A",
"B 	c #3C2C24",
"V 	c #654226",
"C 	c #846654",
"Z 	c #84674D",
"A 	c #353333",
"S 	c #7D6B5C",
"D 	c #8B6A54",
"F 	c #583729",
"G 	c #11070B",
"H 	c #423533",
"J 	c #876758",
"K 	c #8B6D5B",
"L 	c #5B443B",
"P 	c #534442",
"I 	c #433A3A",
"U 	c #2C1B0D",
"Y 	c #312523",
"T 	c #251C15",
"R 	c #4D423D",
"E 	c #1D0709",
"W 	c #4D4442",
"Q 	c #392E32",
"! 	c #262823",
"~ 	c #432D2B",
"^ 	c #131206",
"/ 	c #694838",
"( 	c #886A62",
") 	c #432C1C",
"_ 	c #694432",
"` 	c #3C3125",
"' 	c #2E2D32",
"] 	c #2F312E",
"[ 	c #83736B",
"{ 	c #643C24",
"} 	c #1B0B03",
"| 	c #633D34",
" .	c #624434",
"..	c #241F29",
"X.	c #8B756B",
"o.	c #43322B",
"O.	c #1A0301",
"+.	c #66372F",
"@.	c #231305",
"#.	c #120501",
"$.	c #373936",
"%.	c #22130C",
"&.	c #5B3D39",
"*.	c #23151A",
"=.	c #33242A",
"-.	c #D2AF8A",
";.	c #321E1B",
":.	c #3B2521",
">.	c #242217",
",.	c #847263",
"<.	c #3B2B1C",
"1.	c #927158",
"2.	c #CBA585",
"3.	c #321C14",
"4.	c #C2AA8A",
"5.	c #8A715B",
"6.	c #3D3936",
"7.	c #5A4643",
"8.	c #221513",
"9.	c #926A54",
"0.	c #D6A678",
"q.	c #472A14",
"w.	c #3B3439",
"e.	c #1B1D21",
"r.	c #0D120C",
"t.	c #4A3A38",
"y.	c #6C1E12",
"u.	c #3C1F23",
"i.	c #5B484B",
"p.	c #33231C",
"a.	c #3A2214",
"s.	c #0D1213",
"d.	c #46311B",
"f.	c #1F211D",
"g.	c #351F24",
"h.	c #6A3D2D",
"j.	c #1B1916",
"k.	c #2E2632",
"l.	c #5C3C25",
"z.	c #342A25",
"x.	c #5C3C2B",
"c.	c #734529",
"v.	c #CBA16B",
"b.	c #553218",
"n.	c #6A3C1A",
"m.	c #867154",
"M.	c #C5A583",
"N.	c #321D0C",
"B.	c #976847",
"V.	c #472A0B",
"C.	c #63443B",
"Z.	c #7D7167",
"A.	c #342E32",
"S.	c #492D24",
"D.	c #443224",
"F.	c #432E32",
"G.	c #64422D",
"H.	c #553B2C",
"J.	c #D8A36B",
"K.	c #D4A47C",
"L.	c #544944",
"P.	c #6C492C",
"I.	c #713F18",
"U.	c #9B7348",
"Y.	c #180F11",
"T.	c #C1571D",
"R.	c #E4C817",
"E.	c #423A35",
"W.	c #220C01",
"Q.	c #EFF713",
"!.	c #342213",
"~.	c #8C6539",
"^.	c #623D2B",
"/.	c #34312D",
"(.	c #241E22",
").	c #1F2324",
"_.	c #0B1218",
"`.	c #050A11",
"'.	c #673D37",
"].	c #87756F",
"[.	c #2D2A2A",
"{.	c #AB7278",
"}.	c #C8B5B8",
/* pixels */
"        . X X o O   +   @ O # $ % & * = - ; : : : : : : : : : : : : : : : : : : : : : ; - > , % % $ # O @   +   O O o O         ",
"        < + . 1 2 O +     X 3 4 5   + 6 7 > : : : : : : : : : : : : : : : : : : : : : > 8 o + 9 5 4 3 X     + 0 O , . <         ",
"          <   +     .       q w e r t y u i : : : : : : : : : : : : : : : : : : : : : 3 p a t s d w q       f       .   +       ",
"      O   0 O % 2 g .     X 0 h y j k 5 l z : : : : : : : : : : : : : : : : : : : : : O x c k v b h 0 X       + O % * + +       ",
"+   n n c w m 5 M e 6   g   0 0 % N B V C g : : : : : : : : : : : : : : : : : : : : : g Z V B w O 0 0   g   6 w w x M A m m 2   ",
"  ;   O 9 y t S D F 0 @   % , + G A c H u   : : : : : : : : : : : : : : : : : : : : : . u H 5 A G . , %   @ 0 J K j L P 9 %   + ",
"    g 2 m H I U Y 0 % 3 T n q w x e # u R E : : : : : : : : : : : : : : : : : : : : : E W x B e l w , n T 3 % 9 4 x Q # T   +   ",
"+   O ! w w A A ~ y ^ ; @ n w # Q e / ( ) K : : : : : : : : : : : : : : : : : : : : : K ) ( _ ` A # w n @ ; ^ r l ' ] T A q O   ",
"+   . . n w b ( [ u & B # Q 9 T T U { 8 ! < : : : : : : : : : : : : : : : : : : : : : < ! 8 { U , T 9 Q # B & x j C a l m       ",
"<   O 6 o 2 . T } 8 |  .D v } 2 ..O ~ X.m @ : : : : : : : : : : : : : : : : : : : : :   5 X.o.O l 2 O.D D  .+.b k Y   o + n O   ",
"; 6 @.} k 1 ..# o.e #.w w u . g 0 0 w P q g : : : : : : : : : : : : : : : : : : : : : g q P w 0 0 g ; m $.e 9 e ` x ..A 9 y } + ",
"o P L %.O + x &.K *.+ =.& 9 -.*   w 0 M % O : : : : : : : : : : : : : : : : : : : : : O % M 0 A   2 -.} } =.+ ;.J :.>.O 3 ,.> h ",
"+ & # e a } w <.b $ K J 1.2.3.} O c 2 n % 2 : : : : : : : : : : : : : : : : : : : : : 2 % n 2 c O } 4 4.1.j 5.b $ o.6.7.R o.8.T ",
"; n A H ~ L O.9.0.3.  e B a $ s s s s J J 3.                                                        $ P B #   q.0.1.k $ o.M w.e.",
"r.+ m T u T A x t.m f &.2.q.g s J J 4 3.3.          y.u.                                            g q.2.y < M i.p.c a.3 , 0 s.",
"O 0 & n 0 P 9.9.d.0 k f.A 0 g.s # s 3.J                                                             Y O A , k 3 5.9.h.W o m m 0 ",
"g 0 q w M + x ) j.u k.9 m s l.s J 4 J                                                         y.u.  l.s m 9 k.x x q.q M z.u u 9 ",
"O m H u w 6.a X 8. . .P x.c.v.3.s #                 u.                                  u.      y.  v.c.x.P  .&.n m B w M w N , ",
"  , 7 F b.n.2.' w.=.w m.M.N.4 4       u.    u.  u.  y.                                    u.u.      e N.M.m.w =.A k B.V.V.C.o.n ",
"<.Z.u n A.x S.b.b.D.g x 5 i F.        u.    u.u.                                  y.y.y.y.  u.u.    F.i 5 x g ) c.G.H.c n n 9 y ",
"H 5 + X 5 B a.J.K.P k L.P.I.V         y.  u.u.u.                                y.y.y.  y.y.u.u.    V I.P.7.+ $ J.U.b 0 M < O w ",
", 0   + 0 w , # z.n j.O 0 n w           y.y.      y.          y.y.              y.y.y.y.    u.      w n 0 O 0 6 y W 3 3 0 2   Y.",
"b B T X   2 , x 5 f + O . 0 0     T.y.y.y.y.  y.y.        u.y.                y.y.T.T.y.            0 0 . O +   3 x O n + O u s ",
"0 n n 6 6 m * M . O < j.M A m   T.T.y.T.y.y.y.y.          u.y.              y.T.T.R.R.T.            m A M j..   O l o 5 k n n m ",
"T & E., 2 0 +   X o   O + 0 n   T.R.T.R.T.y.u.          u.y.                  R.R.R.R.R.            n 0 + O   O 0 . n O n m w 3 ",
". A w y W.4 k % m 6   % X . .   R.R.R.R.R.  u.        u.u.                    R.Q.Q.Q.R.            . . X % . X O j.* !.@.y w A ",
"k T o.F V U.W.%   6 @   % O 0   R.Q.Q.R.R.  u.        u.u.                    R.Q.Q.Q.R.            0 O %   @ j.X @.K.~.G.C.u 6 ",
"^.9.q.H 4 ) k O O %   % O O /.  R.Q.Q.R.    u.        u.u.y.                  R.R.R.R.              /.O O %   6 @ X @.a.u 4 M.{ ",
"D ` /.^ n d O @ % 6 (.O O ! O     R.R.R.    u.        u.u.y.                    R.R.                O ! O O * 6 O < 2 n u q /.d.",
"O Y 6 ).O T O % % O . . % % j.              u.y.y.      u.u.y.                                      j.% % .   0 j.% 0 u _.).# , ",
"/.o 2 3 T 0 & 5 w n g 0 0 6 O               u.u.y.    y.u.u.y.y.y.y.T.T.T.y.y.                      O 6 j.0 g M n T 6 0 0 l   2 ",
"g m 0 % O   . o X         O O                 u.u.y.T.T.T.u.y.y.T.T.T.R.T.T.T.T.                    O O         X X   s.g j., q ",
"A e B 9 + ;   .   g                             y.y.T.T.y.y.T.T.y.T.T.R.R.y.y.T.T.T.y.                        g     g @ k t o.# ",
"m m 8.M k .     g g <                             u.y.y.y.u.T.T.y.T.T.R.R.y.T.T.R.R.T.                      < g g <   g & # x m ",
"X n A 0 u k 9 f <   g                         y.T.u.u.u.y.u.y.T.y.T.T.T.T.y.T.R.R.R.T.y.                    g   ; + #.9 & 0 w O ",
"+   0 0 u e a #.  < k                       R.y.T.T.u.y.u.y.y.y.y.T.T.T.T.u.y.T.T.T.T.y.y.                  g `.. #.> e & % X + ",
"+   !   0 w o._ #.f                         R.T.T.T.T.y.y.y.u.y.y.T.T.T.T.u.u.y.y.y.y.y.y.                    g ( '.M e 6 2 @ + ",
"; f O m m e e o.,.9                       T.y.y.T.T.T.u.y.u.y.y.y.y.T.T.y.u.u.u.u.u.y.T.y.                    9 y ` p.M q n %   ",
"    % 6 g u 4 4 #.k                       T.y.y.y.y.T.T.y.y.u.y.y.y.T.T.y.u.u.u.u.y.y.R.T.y.                  ].4 4 T q k 0     ",
"      O w n q w R k +                     y.y.u.u.y.y.u.u.u.y.y.T.T.T.T.y.u.y.u.u.y.y.R.T.y.                + 9 e , , q 0 O   + ",
"      X   O e & 0 +                       u.u.u.u.u.y.y.y.y.y.T.T.T.T.y.u.y.y.y.u.y.y.R.T.y.                  X 6 & 6   O   +   ",
"        O   ; `.0 H g                     y.u.u.u.u.y.y.y.y.y.y.y.y.y.u.y.y.u.y.u.y.y.T.T.y.                . u 2 `.            ",
"          A [.+ k W #.    <                 u.u.u.u.u.u.u.y.y.u.u.u.u.y.y.u.u.y.u.u.y.T.T.y.y.      g <     #.6 k . 6.O         ",
"        X n n m 5 u B l l , w               y.u.u.u.u.u.u.u.u.u.u.y.u.u.u.y.y.y.y.  y.y.T.y.y.      w , l l B T n O m X O       ",
"        + + g 6 X q w   % q T                 y.u.u.u.u.  u.u.u.u.u.u.y.u.y.u.y.y.    u.y.y.y.y.    T , %   w % * O +   +       ",
"            O (.O     g q A 9                 y.y.u.u.u.          y.u.u.u.u.y.y.u.u.    y.y.y.y.    9 $.q     0 O 0 .           ",
"            + % + g O 6 0 & &                   y.y.y.y.            y.y.y.u.u.u.u.y.y.y.T.T.y.      & Y.0 6 O   g j.            ",
"                g X !     2 g     {.            y.y.y.y.            u.u.u.u.u.y.y.u.u.y.T.T.y.      g 2     ! g                 ",
"                    O   2 z.w     {.{.{.          y.y.y.              y.u.u.u.y.u.u.y.T.T.y.y.      w 5 2   O   +               ",
"      O       +       <   6 %     }.}.{.{.{.      y.y.            y.u.y.u.u.u.y.u.u.y.T.y.y.        % 6   <     + +       O     ",
"      O *                 O %     }.}.}.{.{.{.{.{.T.y.      y.u.u.u.u.y.u.u.u.y.u.y.T.T.y.y.        % O   .           + X X   + ",
"  O X O   X             + * w     }.y.}.}.}.{.{.{.{.{.{.y.u.u.u.u.u.u.y.u.u.u.u.u.y.y.y.y.          w * +             O   X O   ",
"  +                     < + 6     y.y.y.}.}.}.}.{.{.{.{.{.{.{.u.u.u.u.u.y.y.y.u.y.y.y.y.y.          6 + <                   + + ",
"    . O O +     + X X             y.y.y.y.}.}.}.}.}.}.{.{.{.{.{.{.{.y.        y.y.y.y.u.y.                  X         6 2   .   ",
"  +   X X n . O O o *                 y.y.}.y.}.}.y.}.}.}.}.{.{.{.{.{.{.{.{.  y.T.T.T.y.y.                  * X X     X X O   + ",
"    O 0 n +   X   + +                   y.y.y.}.}.y.}.}.y.}.}.}.}.}.{.{.{.}.}.y.y.T.T.y.y.y.y.y.            + +   O   2 n O O   ",
"<       .   O n             O               y.y.y.y.y.}.}.}.y.}.}.}.}.}.}.}.y.y.y.y.y.y.u.u.u.u.    O           ! *     +       ",
"<                                                 y.y.y.y.y.y.y.y.}.}.}.y.}.    y.u.u.y.y.y.                    +               ",
"              +       ; +   +                             y.y.y.y.y.}.}.}.}.      y.u.y.y.y.        +   + ;                     ",
"                            q                             y.u.y.y.y.y.y.y.          u.u.y.y.        q                           ",
"                        g m &                               y.u.u.y.                y.u.y.y.y.      & m g                       ",
"            X X *     g g % 0                               y.u.u.y.                  u.u.y.y.      0 % g g     X X O           ",
"              O   +         g                             y.y.u.u.u.u.                  u.u.y.y.    g         X                 ",
"              +             .                           y.u.u.u.u.u.u.              u.u.u.y.y.y.    g         +   +             "};
