/* XPM */
static char * enemy2_xpm[] = {
/* columns rows colors chars-per-pixel */
"35 51 8 1",
" 	c None",
".	c #6C1E12",
"X	c #3C1F23",
"o	c #C1571D",
"O	c #E4C817",
"+	c #EFF713",
"@	c #AB7278",
"#	c #C8B5B8",
/* pixels */
"                                   ",
"        .X                         ",
"                             XX    ",
"                           XX X  X ",
"        X X                XX  X o ",
"    XX. X                ....      ",
"     .  .                   .X     ",
"    .  .                  ...X     ",
"   .  .. .      .       .....      ",
"  .o.....     ..      .oooo..      ",
"ooooo. ..    X.       oOOOoo.      ",
"oOOOOo .    XX        oO+Ooo.      ",
"oO++OoX.   XX         OO++Oo       ",
"OO++O X.   XX         OOO+O        ",
"OOOOO X.   XX          OOO         ",
"  OO  X.   XX.                     ",
"      XX    X.  ....               ",
"      .X.  .XX..ooooooo            ",
"       XX..o.X.oooOOO...           ",
"        X.oooX..ooOOO..oo.         ",
"        .X....oooooO..oOOo.        ",
"       .oXXX.+.oooooo.oOOo.        ",
"      ..oo.X....ooooo.oooo..       ",
"     .o.ooX...+..ooo.X......       ",
"     .o...o.++...oooXXXXX.o.       ",
"     ......X.X...oooX.XXX.Oo.      ",
"     XXXX...XX.oooo.X..XX.Oo.      ",
"      XXXX.....ooo.X...XX.Oo.      ",
"      .XXXX....X..X..X..X.oo.      ",
"       XXXXXXXXXXXX.XXXXX.oo..     ",
"       .XXX...X..XXX.... ..o..     ",
"       ..XXX  .XX..X.X.. X.....    ",
"        .XX.     X..X.XXX ..o.     ",
"        ....      XXXXX..X.oo.     ",
"         ...      XXXXX.XX.oo.     ",
"         ...     ..XXX.XXXoo..     ",
"         ..    .XXXXXX.XX.oo.      ",
"         o.  .XXXXX.XX.XX.o..      ",
"  @@    .o. .XXXXXX.XX.XX...       ",
"  @@@@@.o. XXXXXXX.    XX...       ",
"  ###@@@@@@@@XXXX.     .....       ",
"  ######@@@@@@@@@@@    o.ooo ...X  ",
"  .#.######@@@@@@@@@@@@#....XXX    ",
"   ...#################.....       ",
"   ....#.#.###.########..X...      ",
"     .....#..##..######  XX..      ",
"         .........##...  .X..      ",
"              .X..        XX..     ",
"              ..X.         XX.     ",
"             ..XXX         XX..    ",
"           XXXXXXX       XXX..     "};
