/* XPM */
static char * enemy3_xpm[] = {
/* columns rows colors chars-per-pixel */
"35 51 9 1",
" 	c white",
".	c None",
"X	c #6C1E12",
"o	c #3C1F23",
"O	c #C1571D",
"+	c #E4C817",
"@	c #EFF713",
"#	c #AB7278",
"$	c #C8B5B8",
/* pixels */
"                                 ..",
"...........Xo......................",
"...................................",
"................................Xo.",
"...........o.................o...X.",
"....o..o.o.X..................oo...",
"....o..oo.................XXXX.oo..",
"....X.ooo................XXX.XXoo..",
".....XX...X.....XX.......XXXX..o...",
"..OXXXX.XX....oX........XXOOX......",
".OOXOXXXX....ooX.......XOO++O......",
".O+O+OXo.....oX........O+++++......",
".+++++.o....oo..........+@@@+......",
".+@@++.o....oo..........+@@@+......",
".+@@+..o....ooX.........++++.......",
"..+++..o....ooX..........++........",
".......oXX...ooX...................",
".......ooX..XooXXXXOOOXX...........",
"........ooXOOOoXXOOO+OOOO..........",
".........XXOOXXOOXOO++XXOOOX.......",
"..........oXXXoOOXOO++XOO++OX......",
"........XOoooXoXOXOOOOXO+++OX......",
".......+XOOoXoXXXXOOOOoXOOOOXX.....",
"......X+OOOOXXXoXXOOOOooXXXXXX.....",
"......OXXOOOoXoXXXXOOXoooooXOX.....",
"......OXXXXOOXXoXXXOOXooooXX+OX....",
"......XXooXXoooXXOOOOXoXooXX+OX....",
"......oooooXXXXXOOOOXoXXXoXX+OX....",
"......XooooXXXXXXXXXoXXoXoXXOOX....",
".......oooooooXXooooXXooXooXOOXX...",
".......XooooooooooXoooXXXX.XXOXX...",
"........Xoooo.ooooooXoXoXX..oXXXX..",
"........XXooo.....XooooXXoo..XXXX..",
".........XXXX......XXXooooXXXOOX...",
"..#......XXXX......oooooXXooXOOX...",
"..###.....XXX.......XoooXooXOOXX...",
"..$$###...XX......XoXoooXooXOXX....",
"..$$$#####OX...XooooXoooXoXOOXX....",
"..$X$$$######XooooooXoooooXXXX.....",
"..XXX$$$$#######oooooXXXoXXXXX.....",
"..XXXX$$$$$$#######X....XXXXoX.....",
"....XX$X$$X$$$$########.XOOOXX.....",
".....XXX$$X$$X$$$$$###$$XXOOXXXXX..",
".......XXXXX$$$X$$$$$$$XXXXXXoooo..",
"..........XXXXXXXX$$$X$..XooXXX....",
"..............XXXXX$$$$...XoXXX....",
"..............XoXXXXXX.....ooXX....",
"...............XooX........XoXXX...",
"...............XooX.........ooXX...",
"..............XXoooo.........ooXX..",
".............Xoooooo.......oooXXX.."};
