/* XPM */
static char * enemy_xpm[] = {
/* columns rows colors chars-per-pixel */
"35 51 8 1",
" 	c None",
".	c #6C1E12",
"X	c #3C1F23",
"o	c #C1571D",
"O	c #E4C817",
"+	c #EFF713",
"@	c #AB7278",
"#	c #C8B5B8",
/* pixels */
"                                   ",
"          .                        ",
"                                .X ",
"       XX  X                    .X ",
"      .     X             XX X   X ",
"        X                     .X   ",
"        XX                     X   ",
"     .XXX                 .....    ",
"    ..                    ...      ",
"     .   .     ..       .....      ",
"    ... .     X.       oOoo.o.     ",
"  o.o....    X.        O+OOoo.     ",
"  OOo. X    XX         O++Oo.      ",
" O++Oo X    X.         OO+Oo       ",
" OO+Oo X    X.          OOO        ",
"  OOO  X    X.                     ",
"       X    XX.                    ",
"       X.   XX....ooo..            ",
"       XX. ..X..oooOoooo           ",
"        XX.ooXX.oooOO.....         ",
"         X.o...o.ooOO..ooo.        ",
"        .X....Xo.oooo.oOOOo.       ",
"       O.o.+.XXo.oooo.oOOoo.       ",
"      .Oooo......ooooX...o..       ",
"      o..ooX..+...oo.XXXXX...      ",
"      o.X..X.X.X.ooo.XXXX..O.      ",
"      XXXX...X..oooo.X..X.oO.      ",
"      .XXXX....ooooXX...X.ooo.     ",
"       XXXX.......XX.XX.X.ooo.     ",
"       .XXXXXXXXXXXXXXX....oo.     ",
"       ..XXX..XX..XXX....X.....    ",
"        .XXX.  .X.....X.  .....    ",
"        ..X..    X..XX.XX  .o..    ",
"         ....     XXXXXX....oo.    ",
"         ...       XXXX.XX.oo..    ",
"          ..     ...XXX.XX.oo.     ",
"         ...   ..XX.XXX.XXoo..     ",
"         .o   .XXXX.XXXXX..o.      ",
"   @    .o. .XXXXXXXXX.XX....      ",
"   @@@@@oo..XXXXXXX.    X....      ",
"   ###@@@@@@@@XXXX.    X.....      ",
"   #.###@@@@@@@@@@@    o..oo.....  ",
"   #..#####@@@@@@@@@@@@#.....XXX   ",
"   ...##################.....      ",
"    ....###.##.#########.XX..      ",
"      .#....###.#..###.# .X...     ",
"         ...........#...  XX..     ",
"              ..X.        .X..     ",
"               .X.         XX..    ",
"             ..XXXX        XX..    ",
"            XXXXXX       XXX...    "};
