/* XPM */
static char * exit_xpm[] = {
/* columns rows colors chars-per-pixel */
"64 64 75 1",
" 	c black",
".	c #0F0B0D",
"X	c #422525",
"o	c #97A8AC",
"O	c gray83",
"+	c #BFCFD2",
"@	c #3A2122",
"#	c #06131A",
"$	c #B6CBCF",
"%	c #E6F9FD",
"&	c #FFEAD1",
"*	c white",
"=	c #B88562",
"-	c #FFCFAE",
";	c #D4C2AD",
":	c #F4B480",
">	c #141013",
",	c #321E21",
"<	c #282F30",
"1	c #4E5338",
"2	c #512D2F",
"3	c #6C734E",
"4	c #794840",
"5	c #110D10",
"6	c #D4AC90",
"7	c #41452E",
"8	c #2E3F3B",
"9	c #263431",
"0	c #5A5F41",
"q	c #997C68",
"w	c #273C4B",
"e	c #2B4251",
"r	c #345257",
"t	c #3D6066",
"y	c #213340",
"u	c #2E4658",
"i	c #334D5F",
"p	c #4B7E7F",
"a	c #487178",
"s	c #589495",
"d	c #06141F",
"f	c #71A8A4",
"g	c #505B40",
"h	c #608F8B",
"j	c #517C81",
"k	c #937E4B",
"l	c #AD9458",
"z	c #66396D",
"x	c #446A6E",
"c	c #FFECD4",
"v	c #061621",
"b	c #5C6242",
"n	c #AD4F73",
"m	c #F67D7D",
"M	c #639F9D",
"N	c #7D6B40",
"B	c #D16A6A",
"V	c #548B89",
"C	c None",
"Z	c #FFC2A1",
"A	c #1B1F21",
"S	c #F5FFE8",
"D	c #4FA4B8",
"F	c #4C6885",
"G	c #92E8C0",
"H	c #3A3F5E",
"J	c #CC2F7B",
"K	c #CF752B",
"L	c #FF5277",
"P	c #9C2A70",
"I	c #AB5130",
"U	c #4B1D52",
"Y	c #14182E",
"T	c #692464",
"R	c #7D3833",
/* pixels */
" .............................................................. ",
" X..................X.X......................................X. ",
" X.oooooooooooooooo.X.XOOOOOOOOOOOOOOOOO....+++++++++++++++++X. ",
" @.###$%%$$%%$$%%%$.@.@O&&**&&=-=&&***&;....+%%%%%%%%%%%%%%%+@. ",
" @.#####%%%%######%.@.@;&&&&&&*:*=&&&&&;....+%%>>>>%%%%%%%%%+@. ",
" ,.###<<<<<<<#####1.,.,;&&&&&=::::&&&&&;....+>===>22%%%%%%%%+,. ",
" ,.333<<<<<<<<11111.,.,;&&&&--:::=&&&&&;....+>444>22$%%$$%%%o,. ",
" ,.3333<<<<<1111111.,.,;&&&&--=-=-&&&&&;....o>444>>2$$$$$$$$o,. ",
" @.3333333111111111.@.@;&--&&======-&&&;....5>>>>>>>>>>>>>>>5@. ",
" @.3333333331111111.@.@6-&---======----;....78811188881188889@. ",
" X.0000000000000777.X.X6666666qqq6666666....77777777777777777X. ",
" X..................X.X......................................X. ",
" .............................................................. ",
" .............................................................. ",
" X..................X.X......................................X. ",
" X.wwwwwwwwwwwwwwwe.X.Xrtttttttttttttttr....yewwwwwwwwwwwwwwyX. ",
" @.uiiiuuuuuuuuuuui.@.@paasssaassaasssar....wiuuuuuiiuuuuuuuw@. ",
" ,.uuuiuuuuudddduuu.,.,pffsggggggffsssfh....tauiiaauuaauua&jy,. ",
" ,.uuuuuuuuiddddduu.,.,klsgggzggggsfffsp....yiaaauuaauiaaui&x,. ",
" ,.uuuuuuucivvvvvci.,.,kllllggggg333333b....tjaaaaaaaajaaa&jt,. ",
" ,.uuuuuuiicccccciu.,.,knlllllgg33333z3b....taaajaaaaaaaaajat,. ",
" @.uuuuuuiuudddduuu.@.@kllllmlllll33333b....psaajssaassaassst@. ",
" @.uuuuuuuuuuddduuu.@.@kllllllllll33333b....pssssssssssMssssp@. ",
" X.wwwwwwwwwwwwwwww.X.XNkkkkkkkkBkkkbbb1....tppppppppppVpppptX. ",
" X..................X.X......................................X. ",
" .............................................................. ",
" CCCCCCCCCCCCCCCCCCCCCCCCCCCCCCCCCCCCCCCCCCCCCCCCCCCCCCCCCCCCCC ",
" .XXXXXXXXXXXXXXX.CC CC.XXXXXXXXXXXXXXX.CC CC.XXXXXXXXXXXXXXX.C ",
" .XZZZZZZZZZZZZZ..CC CC.XAAAAAAAAAAAAA..CC CC.XZZZZZZZZZZZZZ..C ",
" .XZZZZZZZZZZZZZ..CC CC.XAAAAAAAAAAAAA..CC CC.XZZZZZZZZZZZZZ..C ",
" .XZZZSZZZZZZZZZ..CC CC.XAAAAAADAFAAAA..CC CC.XZZZZZZZZZZZZZ..C ",
" .XZZSSSZZZZZZZZ..CC CC.XAAAAADGDAAAAA..CC CC.XZZZZZZZZZZZZZ..C ",
" .XSSSSSSZZZZSZZ..CC CC.XAAAAFGGGDAAAA..CC CC.XZZZZZZZZZZZZZ..C ",
" .XZZZZZZZZZSSSS..CC CC.XAAAAADGDAAAAA..CC CC.XZZZZZZZZZZZZZ..C ",
" .XZZZZZZZZSSSSS..CC CC.XAAAAAAFAAAAAA..CC CC.XZZZZZZZZZZZZZ..C ",
" .XZZZZZZZZZZZZZ..CC CC.XAAAAAAAAAAAAA..CC CC.XZZZZZZZZZZZZZ..C ",
" .XSZZZSSZZSSZZS..CC CC.XAAAAFAAAAAAHA..CC CC.XZZZZZZZZZZZZZ..C ",
" .XSSSSSSSSSSSSS..CC CC.XAAAAAAAAAADAA..CC CC.XZZSSZZSSZZSSS..C ",
" .@SSSSSSSSSSSSS..CC CC.@AADDAAAAAFAAA..CC CC.@SSSSSSSSSSSSS..C ",
" .@SSSSSSSSSSSJJ..CC CC.@AAAAAAFAAAAAA..CC CC.@SSSSSSKKSSSSS..C ",
" .@SSSSSSSSSJJLL..CC CC.@AAAAAAFAAAAAA..CC CC.@SSSSSKKKKSSSS..C ",
" .@JJPSSSSLLLLLL..CC CC.@AAFFAAFAAHDAA..CC CC.@SISSSKKKKSSSS..C ",
" .@JJJSSSJLLLLLL..CC CC.@AAGGDAAAADDFA..CC CC.@SIISSKKKKSSSS..C ",
" .@JPJJJLLLLLLLL..CC CC.@AAAAAAAAAAFAA..CC CC.@IIISSSSSSSSSS..C ",
" .@JJJJJPLLL   U..CC CC.@AAAAAAAAAAAAA..CC CC.@II  SKKKKSSSS..C ",
" .@JJYJJTPPPLU T..CC CC.@AAFFAAAAAHFAA..CC CC.@I II KKKKKKKK..C ",
" .@JJLTTPPPUUS T..CC CC.@AADDAAAAAFDAA..CC CC.@I IK KKKKKKKK..C ",
" .@JYYYPPPPPUSTT..CC CC.@AAAAAAFAAAAAA..CC CC.@IIIIKKRKKRKKR..C ",
" .@PYYPTPPUUTUTT..CC CC.@AAAAAAFAAAHAA..CC CC.@IIIRIIIIRRRRR..C ",
" .@YYYPPPUTTTTTT..CC CC.@AAAAAAFAAAFAA..CC CC.@IRIIRRRRRRRRR..C ",
" .@UYYYYTTTTUTTT..CC CC.@AAAAAAFAAAFAA..CC CC.@IIIRRRRRRRRRR..C ",
" .@UYYUUTTTTTTUT..CC CC.@AAAAAAFAAAHAA..CC CC.@IRRRRRRRRRRRR..C ",
" .@UUUUUUUYYTTTT..CC CC.@AAAAAAFAAAAAA..CC CC.@RRRRRRRRRRRRR..C ",
" .@UUUUUUUUUYYTT..CC CC.@AAAAAADAAAFAA..CC CC.@RRRRRRRRRRRRR..C ",
" .,UUUUYUUUUUUYT..CC CC.,AAAAAAGAAAFAA..CC CC.,RRRRRRRRRRRRR..C ",
" .,UUUUUUUUUUUUY..CC CC.,AAAAAAGAAAAAA..CC CC.,RRRRRRRRRRRRR..C ",
" .,UUUUUUUUUUUUU..CC CC.,AADAAAGAAAFAA..CC CC.,RRRRRRRRRRRRR..C ",
" .,UUUUUUUUUUYUU..CC CC.,AADAAGGGAAFAA..CC CC.,RRRRRRRRRRRRR..C ",
" .,UUUYUUUUUUUUU..CC CC.,AAAAAGGGAAAAA..CC CC.,RRRRRRRRRRRRR..C ",
" .,UUUUUUUUUUUUU..CC CC.,AAAAAAAAAAAAA..CC CC.,RRRRRRRRRRRRR..C ",
" .,UUUUUUUUUUUUU..CC CC.,AAAAAAAAAAAAA..CC CC.,RRRRRRRRRRRRR..C ",
" .,,,,,,,,,,,,,,,.CC CC.,,,,,,,,,,,,,,,.CC CC.,,,,,,,,,,,,,,,.C ",
" .................CCCCC.................CCCCC.................C ",
"                                                                "};
