/* XPM */
static char *abfade9c5aa44741ae2dc037ce8af2884OFaeUidXO0rcNBR[] = {
/* columns rows colors chars-per-pixel */
"57 71 140 2 ",
"   c None",
".  c black",
"X  c gray1",
"o  c #131111",
"O  c #131212",
"+  c #141212",
"@  c #141313",
"#  c #151313",
"$  c #161313",
"%  c #151414",
"&  c #161414",
"*  c #171414",
"=  c #161514",
"-  c #161515",
";  c #171515",
":  c #191716",
">  c #181617",
",  c #181717",
"<  c #1C1716",
"1  c #1D1716",
"2  c #191718",
"3  c #191818",
"4  c #1B1919",
"5  c #1B191A",
"6  c #1B1A1A",
"7  c #1C1A1A",
"8  c #1C1B1B",
"9  c #1E1B1B",
"0  c #1D1C1C",
"q  c #1E1C1C",
"w  c #1F1D1D",
"e  c #1F1E1E",
"r  c #231B19",
"t  c #201E1E",
"y  c #211E1E",
"u  c #201F1F",
"i  c #211F1F",
"p  c #221F1F",
"a  c #251F1C",
"s  c #261F1D",
"d  c #26211E",
"f  c #27211E",
"g  c #27211F",
"h  c #28221F",
"j  c #29221F",
"k  c #2A221F",
"l  c #2A231F",
"z  c #212020",
"x  c #222020",
"c  c #222121",
"v  c #232121",
"b  c #232222",
"n  c #242222",
"m  c #252223",
"M  c #252323",
"N  c #262325",
"B  c #252424",
"V  c #272525",
"C  c #292220",
"Z  c #292320",
"A  c #2B2421",
"S  c #282526",
"D  c #2C2524",
"F  c #2B2928",
"G  c #2B2829",
"H  c #2B2929",
"J  c #2D2A2B",
"K  c #2E2B2C",
"L  c #2F2B2C",
"P  c #2F2C2D",
"I  c #302927",
"U  c #302D2D",
"Y  c #302D2E",
"T  c #312E2E",
"R  c #312E2F",
"E  c #322E2E",
"W  c #322E2F",
"Q  c #332E2F",
"!  c #332F2F",
"~  c #342E2C",
"^  c #37312F",
"/  c #313030",
"(  c #343031",
")  c #343131",
"_  c #353131",
"`  c #343132",
"'  c #353132",
"]  c #353232",
"[  c #353233",
"{  c #363232",
"}  c #363233",
"|  c #373334",
" . c #373636",
".. c gray22",
"X. c #393939",
"o. c #3C3C3C",
"O. c gray24",
"+. c #3E3D3D",
"@. c #3F3E3E",
"#. c #412926",
"$. c #403F3F",
"%. c #4E4D4C",
"&. c #504F4F",
"*. c #52504F",
"=. c #515050",
"-. c #535151",
";. c #545353",
":. c #575656",
">. c #585757",
",. c #5D5857",
"<. c #595858",
"1. c #5C5A5A",
"2. c #5C5B5B",
"3. c #5D5C5C",
"4. c #5E5C5C",
"5. c #605D5D",
"6. c #605E5D",
"7. c #605E5E",
"8. c #666261",
"9. c #686464",
"0. c #696565",
"q. c #6A6766",
"w. c #6E6A69",
"e. c #706C6B",
"r. c #716D6C",
"t. c #736E6D",
"y. c #746F6E",
"u. c #74706F",
"i. c #767271",
"p. c #797574",
"a. c #7A7574",
"s. c #7A7675",
"d. c #7C7776",
"f. c #7D7877",
"g. c #7E7877",
"h. c #7F7877",
"j. c #7F7977",
"k. c #7E7978",
"l. c #7F7978",
"z. c #7F7A79",
/* pixels */
"                                                                                                                  ",
"                                                                                                                  ",
"                                                                                                                  ",
"                                                                                                                  ",
"                                                                                                                  ",
"                                                ..................O.O.$.                                          ",
"                                          ....O.&.;.;.;.;.;.:.>.2.t.y.u.d.                                        ",
"                                      ..O.&.;.;.>.<.<.2.4.7.i.s.s.h.                                              ",
"                                  ..O.&.;.>.<.<.2.4.7.i.s.s.h.h.                                                  ",
"                                O.&.;.>.<.<.2.7.i.s.s.l.l.h.                                                      ",
"                            ..O.=.>.<.<.2.7.i.s.l.l.l.h.                                                          ",
"                          O.&.;.>.<.2.7.i.s.l.l.l.h.                                                              ",
"                        O.=.>.<.<.7.u.w.e.t.h.l.h.                                                                ",
"                      ..&.>.<.<.4.0.8.H x H 0.d.                                                                  ",
"                       .%.=.>.4.7.H y % % % y                                                                     ",
"                      D I ~ *.0.H % % % % % #                                                                     ",
"                        Z A ^ ,.y % % % % % # O                                                                   ",
"                            h y % % % % < % < #                                                                   ",
"                              # % % % < #.r #.<                                                                   ",
"                              # % % % % < % < #                                                                   ",
"                              # % % % % % % % #                                                                   ",
"                              # % % % % % % % % f                                                                 ",
"                              # % % % % % % % % s f Z Z                                                           ",
"                          O # # % % % % % % % % % , s h Z Z                                                       ",
"                      O # # % % % % % % % % % % % % %   h Z Z Z                                                   ",
"                    # # % % % % % % % % % % % % % % # #     Z Z Z Z                                               ",
"                  # # % % % % % % % % % % % % % % % % #         Z Z f 9 q                                         ",
"                # # % % % % % % % % % % % % % % % % % ,             q x J q                                       ",
"              O # % % % % % % % % % % % % % % % % % 2 R             x J y q h Z                                   ",
"              # % % % % % % % % % % % % % % % % % , q R           q P x 9   Z Z Z Z                               ",
"              # % % % % % % % % % % % % % % % % 4 L y m _       q x /           Z Z Z Z                           ",
"              # % % % % % % % % % % % % % # % 4 L |   _ _     _ m R                 Z Z Z Z                       ",
"              # % % % % % % % % % % % % % ,   L S _     N R x _ _                       Z Z Z Z                   ",
"              # % % % % % % % % % % % % 4 L R B R _     _ _ x _                             Z Z Z Z               ",
"              O # % % % % % % % % # # , H m B R   x       _ y                                   Z Z Z h           ",
"                # % % % % % % % % #   9 m R R   x R                                                 Z h           ",
"                # % % % % % % % # % q q J x x x R                                                                 ",
"                # % % % % % % % #   R q q   _ _                                                                   ",
"                # % % % % % % % #     9 9 q                                                                       ",
"                # % % % % % % % #   .   q 9                                                                       ",
"                # % % % % % % # O     4 9 4 .                                                                     ",
"                # % % % % % % #     9 9 9   .                                                                     ",
"                # % % % % % % # O   9 9 9   .                                                                     ",
"                # % % % % % % % #     4 4 .                                                                       ",
"                O # % % % % % % #     4                                                                           ",
"                  # % % % % % % #     9                                                                           ",
"                  # % % % % % % #     9                                                                           ",
"                  # % % % % % % #     9                                                                           ",
"                  O # % % % % % # O   ,                                                                           ",
"                    # % % % % % % #   .                                                                           ",
"                    # % % % % % # O   .                                                                           ",
"                    # % % % % % #                                                                                 ",
"                    # % % % % % % O                                                                               ",
"                    # % % % % % #                                                                                 ",
"                    O # % % % # O                                                                                 ",
"                      # % % % #                                                                                   ",
"                      # % % % #                                                                                   ",
"                      O # % % #                                                                                   ",
"                        # % # O                                                                                   ",
"                        # % #                                                                                     ",
"                        O # #                                                                                     ",
"                          # #                                                                                     ",
"                          # #                                                                                     ",
"                          O #                                                                                     ",
"                            #                                                                                     ",
"                            #                                                                                     ",
"                            #                                                                                     ",
"                                                                                                                  ",
"                                                                                                                  ",
"                                                                                                                  ",
"                                                                                                                  "
};
