/* XPM */
static char * idle2_xpm[] = {
/* columns rows colors chars-per-pixel */
"64 64 64 1",
" 	c None",
".	c gray22",
"X	c gray24",
"o	c #403F3F",
"O	c #504F4F",
"+	c #545353",
"@	c #575656",
"#	c #585757",
"$	c #5C5B5B",
"%	c #736E6D",
"&	c #746F6E",
"*	c #74706F",
"=	c #7C7776",
"-	c #595858",
";	c #5E5C5C",
":	c #605E5E",
">	c #767271",
",	c #7A7675",
"<	c #7F7877",
"1	c #7F7978",
"2	c #515050",
"3	c #6E6A69",
"4	c #706C6B",
"5	c #696565",
"6	c #666261",
"7	c #2B2929",
"8	c #222020",
"9	c #373636",
"0	c #4E4D4C",
"q	c #211E1E",
"w	c #151414",
"e	c #2C2524",
"r	c #302927",
"t	c #342E2C",
"y	c #52504F",
"u	c #151313",
"i	c #292320",
"p	c #2B2421",
"a	c #37312F",
"s	c #5D5857",
"d	c #131212",
"f	c #28221F",
"g	c #1C1716",
"h	c #412926",
"j	c #231B19",
"k	c #27211E",
"l	c #261F1D",
"z	c #181717",
"x	c #1E1B1B",
"c	c #1E1C1C",
"v	c #2D2A2B",
"b	c #191718",
"n	c #312E2F",
"m	c #2F2C2D",
"M	c #1B1919",
"N	c #2F2B2C",
"B	c #252223",
"V	c #353131",
"C	c #313030",
"Z	c #373334",
"A	c #282526",
"S	c #262325",
"D	c #252424",
"F	c black",
/* pixels */
"                                                                ",
"                          .........XXo                          ",
"                       ..XO+++++@#$%&*=                         ",
"                     .XO++#--$;:>,,<                            ",
"                   .XO+#--$;:>,,<<                              ",
"                  XO+#--$:>,,11<                                ",
"                .X2#--$:>,111<                                  ",
"               XO+#-$:>,111<                                    ",
"              X2#--:*34%<1<                                     ",
"             .O#--;567875=                                      ",
"             902#;:7qwwwq                                       ",
"             erty57wwwwwu                                       ",
"              ipasqwwwwwud                                      ",
"                fqwwwwgwgu                                      ",
"                 uwwwghjhg                                      ",
"                 uwwwwgwgu                                      ",
"                 uwwwwwwwu                                      ",
"                 uwwwwwwwwk                                     ",
"                 uwwwwwwwwlkii                                  ",
"               duuwwwwwwwwwzlfii                                ",
"             duuwwwwwwwwwwwww fiii                              ",
"            uuwwwwwwwwwwwwwwuu  iiii                            ",
"           uuwwwwwwwwwwwwwwwwu    iikxc                         ",
"          uuwwwwwwwwwwwwwwwwwz      c8vc                        ",
"         duwwwwwwwwwwwwwwwwwbn      8vqcfi                      ",
"         uwwwwwwwwwwwwwwwwwzcn     cm8x iiii                    ",
"         uwwwwwwwwwwwwwwwwMNqBV   c8C     iiii                  ",
"         uwwwwwwwwwwwwwuwMNZ VV  VBn        iiii                ",
"         uwwwwwwwwwwwwwz NAV  Sn8VV           iiii              ",
"         uwwwwwwwwwwwwMNnDnV  VV8V              iiii            ",
"         duwwwwwwwwuuz7BDn 8   Vq                 iiif          ",
"          uwwwwwwwwu xBnn 8n                        if          ",
"          uwwwwwwwuwccv888n                                     ",
"          uwwwwwwwu ncc VV                                      ",
"          uwwwwwwwu  xxc                                        ",
"          uwwwwwwwu F cx                                        ",
"          uwwwwwwud  MxMF                                       ",
"          uwwwwwwu  xxx F                                       ",
"          uwwwwwwud xxx F                                       ",
"          uwwwwwwwu  MMF                                        ",
"          duwwwwwwu  M                                          ",
"           uwwwwwwu  x                                          ",
"           uwwwwwwu  x                                          ",
"           uwwwwwwu  x                                          ",
"           duwwwwwud z                                          ",
"            uwwwwwwu F                                          ",
"            uwwwwwud F                                          ",
"            uwwwwwu                                             ",
"            uwwwwwwd                                            ",
"            uwwwwwu                                             ",
"            duwwwud                                             ",
"             uwwwu                                              ",
"             uwwwu                                              ",
"             duwwu                                              ",
"              uwud                                              ",
"              uwu                                               ",
"              duu                                               ",
"               uu                                               ",
"               uu                                               ",
"               du                                               ",
"                u                                               ",
"                u                                               ",
"                u                                               ",
"                                                                "};
