/* XPM */
static char * idleforbase_xpm[] = {
/* columns rows colors chars-per-pixel */
"24 32 44 1",
" 	c None",
".	c gray22",
"X	c #504F4F",
"o	c #545353",
"O	c #575656",
"+	c #5C5B5B",
"@	c #746F6E",
"#	c #7C7776",
"$	c gray24",
"%	c #595858",
"&	c #605E5E",
"*	c #7A7675",
"=	c #7F7877",
"-	c #515050",
";	c #767271",
":	c #7F7978",
">	c #585757",
",	c #74706F",
"<	c #706C6B",
"1	c #4E4D4C",
"2	c #211E1E",
"3	c #151414",
"4	c #292320",
"5	c #37312F",
"6	c #151313",
"7	c #412926",
"8	c #261F1D",
"9	c #28221F",
"0	c #27211E",
"q	c #1E1C1C",
"w	c #191718",
"e	c #222020",
"r	c #1B1919",
"t	c #353131",
"y	c #313030",
"u	c #282526",
"i	c #262325",
"p	c #2B2929",
"a	c #252424",
"s	c #2D2A2B",
"d	c #312E2F",
"f	c #1E1B1B",
"g	c #131212",
"h	c black",
/* pixels */
"                        ",
"        .XooO+@#        ",
"      $o%+&*=           ",
"    .-%+;::             ",
"   $>%,<==              ",
"   1>&232               ",
"   452336               ",
"     3377               ",
"     3333               ",
"     333384             ",
"   6333333394           ",
"  633333333  40q        ",
" 633333333w   e29       ",
" 33333333r2t qy  44     ",
" 3333333 u iet     44   ",
" 633336pa   2        44 ",
" 63336qsed              ",
" 63336 f                ",
" 6333g fh               ",
" 6333gffh               ",
" g3336                  ",
"  3336                  ",
"  6336                  ",
"  6336                  ",
"  6333                  ",
"  g33g                  ",
"   33                   ",
"   66                   ",
"   g6                   ",
"    6                   ",
"    6                   ",
"    6                   "};
