/* XPM */
static char * No0B_xpm[] = {
/* columns rows colors chars-per-pixel */
"64 64 189 3",
"   	c gray4",
".  	c #0A0709",
"X  	c #151815",
"o  	c #120E11",
"O  	c #141313",
"+  	c #060505",
"@  	c #0D0D11",
"#  	c #3B2D2B",
"$  	c #5C4334",
"%  	c #13110E",
"&  	c #190E0B",
"*  	c #1C1B1A",
"=  	c #4D3C34",
"-  	c #240F0B",
";  	c #050609",
":  	c black",
">  	c #543D33",
",  	c #241D1C",
"<  	c #060A0B",
"1  	c #252529",
"2  	c #1A1619",
"3  	c #1B130D",
"4  	c #2B1C14",
"5  	c #2D2925",
"6  	c #120D0C",
"7  	c #533E3B",
"8  	c #5B3D33",
"9  	c #130A03",
"0  	c #1A1513",
"q  	c #24211E",
"w  	c #3B3433",
"e  	c #3B322C",
"r  	c #492D2B",
"t  	c #7C6559",
"y  	c #54443C",
"u  	c #2B211D",
"i  	c #1C1205",
"p  	c #2C2114",
"a  	c #59493A",
"s  	c #4B332B",
"d  	c #353339",
"f  	c #060906",
"g  	c #0A0906",
"h  	c #4E4848",
"j  	c #836B5C",
"k  	c #0A0504",
"l  	c #2A1E22",
"z  	c #141419",
"x  	c #2A1D1C",
"c  	c #2C252A",
"v  	c #856B55",
"b  	c #554235",
"n  	c #252222",
"m  	c #2B2423",
"M  	c #342C2C",
"N  	c #3C3A3A",
"B  	c #3C2C24",
"V  	c #654226",
"C  	c #846654",
"Z  	c #84674D",
"A  	c #353333",
"S  	c #7D6B5C",
"D  	c #8B6A54",
"F  	c #583729",
"G  	c #11070B",
"H  	c #423533",
"J  	c #876758",
"K  	c #8B6D5B",
"L  	c #5B443B",
"P  	c #534442",
"I  	c #433A3A",
"U  	c #2C1B0D",
"Y  	c #312523",
"T  	c #251C15",
"R  	c #4D423D",
"E  	c #1D0709",
"W  	c #4D4442",
"Q  	c #392E32",
"!  	c #262823",
"~  	c #432D2B",
"^  	c #131206",
"/  	c #694838",
"(  	c #886A62",
")  	c #432C1C",
"_  	c #694432",
"`  	c #3C3125",
"'  	c #2E2D32",
"]  	c #2F312E",
"[  	c #83736B",
"{  	c #643C24",
"}  	c #1B0B03",
"|  	c #633D34",
" . 	c #624434",
"...	c #241F29",
"X..	c #8B756B",
"o..	c #43322B",
"O..	c #1A0301",
"+..	c #66372F",
"@..	c #231305",
"#..	c #120501",
"$..	c #373936",
"%..	c #22130C",
"&..	c #5B3D39",
"*..	c #23151A",
"=..	c #33242A",
"-..	c #D2AF8A",
";..	c #321E1B",
":..	c #3B2521",
">..	c #242217",
",..	c #847263",
"<..	c #3B2B1C",
"1..	c #927158",
"2..	c #CBA585",
"3..	c #321C14",
"4..	c #C2AA8A",
"5..	c #8A715B",
"6..	c #3D3936",
"7..	c #5A4643",
"8..	c #221513",
"9..	c #926A54",
"0..	c #D6A678",
"q..	c #472A14",
"w..	c #3B3439",
"e..	c #1B1D21",
"r..	c #0D120C",
"t..	c #4A3A38",
"y..	c #3B392D",
"u..	c #5B484B",
"i..	c #33231C",
"p..	c #3A2214",
"a..	c #0D1213",
"s..	c #46311B",
"d..	c #1F211D",
"f..	c #351F24",
"g..	c #342213",
"h..	c #6A3D2D",
"j..	c #1B1916",
"k..	c #2E2632",
"l..	c #5C3C25",
"z..	c #331602",
"x..	c #64422D",
"c..	c #976937",
"v..	c #CBA16B",
"b..	c #342A25",
"n..	c #5C3C2B",
"m..	c #734529",
"M..	c #553218",
"N..	c #6A3C1A",
"B..	c #867154",
"V..	c #C5A583",
"C..	c #321D0C",
"Z..	c #0E1003",
"A..	c #976847",
"S..	c #472A0B",
"D..	c #63443B",
"F..	c #7D7167",
"G..	c #342E32",
"H..	c #492D24",
"J..	c #443224",
"K..	c #432E32",
"L..	c #15191A",
"P..	c #070611",
"I..	c #553B2C",
"U..	c #D8A36B",
"Y..	c #D4A47C",
"T..	c #544944",
"R..	c #6C492C",
"E..	c #713F18",
"W..	c #9B7348",
"Q..	c #180F11",
"!..	c #423A35",
"~..	c #220C01",
"^..	c #8C6539",
"/..	c #623D2B",
"(..	c #34312D",
")..	c #241E22",
"_..	c #1F2324",
"`..	c white",
"'..	c #0B1218",
"]..	c #050A11",
"[..	c #673D37",
"{..	c #87756F",
"}..	c #2D2A2A",
"|..	c #100C1A",
" X.	c #5C412C",
".X.	c #5C4A44",
"XXX	c #693E24",
"oXX	c #714019",
"OXX	c #8C7362",
/* pixels */
"            .  X  X  o  O     +     @  O  #  $  %  &  *  =  -  ;  :  :  :  :  :  :  :  :  :  :  :  :  :  :  :  :  :  :  :  :  :  ;  -  >  ,  %  %  $  #  O  @     +     O  O  o  O              ",
"            <  +  .  1  2  O  +        X  3  4  5     +  6  7  >  :  :  :  :  :  :  :  :  :  :  :  :  :  :  :  :  :  :  :  :  :  >  8  o  +  9  5  4  3  X        +  0  O  ,  .  <              ",
"               <     +        .           q  w  e  r  t  y  u  i  :  :  :  :  :  :  :  :  :  :  :  :  :  :  :  :  :  :  :  :  :  3  p  a  t  s  d  w  q           f           .     +           ",
"         O     0  O  %  2  g  .        X  0  h  y  j  k  5  l  z  :  :  :  :  :  :  :  :  :  :  :  :  :  :  :  :  :  :  :  :  :  O  x  c  k  v  b  h  0  X           +  O  %  *  +  +           ",
"+     n  n  c  w  m  5  M  e  6     g     0  0  %  N  B  V  C  g  :  :  :  :  :  :  :  :  :  :  :  :  :  :  :  :  :  :  :  :  :  g  Z  V  B  w  O  0  0     g     6  w  w  x  M  A  m  m  2     ",
"   ;     O  9  y  t  S  D  F  0  @     %  ,  +  G  A  c  H  u     :  :  :  :  :  :  :  :  :  :  :  :  :  :  :  :  :  :  :  :  :  .  u  H  5  A  G  .  ,  %     @  0  J  K  j  L  P  9  %     +  ",
"      g  2  m  H  I  U  Y  0  %  3  T  n  q  w  x  e  #  u  R  E  :  :  :  :  :  :  :  :  :  :  :  :  :  :  :  :  :  :  :  :  :  E  W  x  B  e  l  w  ,  n  T  3  %  9  4  x  Q  #  T     +     ",
"+     O  !  w  w  A  A  ~  y  ^  ;  @  n  w  #  Q  e  /  (  )  K  :  :  :  :  :  :  :  :  :  :  :  :  :  :  :  :  :  :  :  :  :  K  )  (  _  `  A  #  w  n  @  ;  ^  r  l  '  ]  T  A  q  O     ",
"+     .  .  n  w  b  (  [  u  &  B  #  Q  9  T  T  U  {  8  !  <  :  :  :  :  :  :  :  :  :  :  :  :  :  :  :  :  :  :  :  :  :  <  !  8  {  U  ,  T  9  Q  #  B  &  x  j  C  a  l  m           ",
"<     O  6  o  2  .  T  }  8  |   . D  v  }  2  ...O  ~  X..m  @  :  :  :  :  :  :  :  :  :  :  :  :  :  :  :  :  :  :  :  :  :     5  X..o..O  l  2  O..D  D   . +..b  k  Y     o  +  n  O     ",
";  6  @..}  k  1  ...#  o..e  #..w  w  u  .  g  0  0  w  P  q  g  :  :  :  :  :  :  :  :  :  :  :  :  :  :  :  :  :  :  :  :  :  g  q  P  w  0  0  g  ;  m  $..e  9  e  `  x  ...A  9  y  }  +  ",
"o  P  L  %..O  +  x  &..K  *..+  =..&  9  -..*     w  0  M  %  O  :  :  :  :  :  :  :  :  :  :  :  :  :  :  :  :  :  :  :  :  :  O  %  M  0  A     2  -..}  }  =..+  ;..J  :..>..O  3  ,..>  h  ",
"+  &  #  e  a  }  w  <..b  $  K  J  1..2..3..}  O  c  2  n  %  2  :  :  :  :  :  :  :  :  :  :  :  :  :  :  :  :  :  :  :  :  :  2  %  n  2  c  O  }  4  4..1..j  5..b  $  o..6..7..R  o..8..T  ",
";  n  A  H  ~  L  O..9..0..3..   e  B  a  $  l  O  .  m  n        :  :  :  :  :  :  :  :  :  :  :  :  :  :  :  :  :  :  :  :  :        q  !  .  0  l  $  P  B  #     q..0..1..k  $  o..M  w..e..",
"r..+  m  T  u  T  A  x  t..m  f  &..2..q..g  H  u  8..6  6  o     :  :  :  :  :  :  :  :  :  :  :  :  :  :  :  :  :  :  :  :  :     o  6  6  8..u  y..g  q..2..y  <  M  u..i..c  p..3  ,  0  a..",
"O  0  &  n  0  P  9..9..s..0  k  d..A  0  f..H  y  S  g..u  n     :  :  :  :  :  :  :  :  :  :  :  :  :  :  :  :  :  :  :  :  :     n  u  g..t  L  s  Y  O  A  ,  k  3  5..9..h..W  o  m  m  0  ",
"g  0  q  w  M  +  x  )  j..u  k..9  m  s  l..z..x..c..v..@..z  <  :  :  :  :  :  :  :  :  :  :  :  :  :  :  :  :  :  :  :  :  :  <  O  @..v..c..x..z..l..s  m  9  k..x  x  q..q  M  b..u  u  9  ",
"O  m  H  u  w  6..a  X  8.. .  . P  n..m..v..*..O  %  6..a..0  #..:  :  :  :  :  :  :  :  :  :  :  :  :  :  :  :  :  :  :  :  :  g  X  O  I  %  a..*..v..m..n..P   . &..n  m  B  w  M  w  N  ,  ",
"   ,  7  F  M..N..2..'  w..=..w  B..V..C..e  ^  0  0  0  j..Z..%  :  :  :  :  :  :  :  :  :  :  :  :  :  :  :  :  :  :  :  :  :  O     X  0  3  3  ^  e  C..V..B..w  =..A  k  A..S..S..D..o..n  ",
"<..F..u  n  G..x  H..M..M..J..g  x  5  i  K..k  L..X  g  ,  o  P..:  :  :  :  :  :  :  :  :  :  :  :  :  :  :  :  :  :  :  :  :  .  6  *     L..L..#..K..i  5  x  g  )  m..x..I..c  n  n  9  y  ",
"H  5  +  X  5  B  p..U..Y..P  k  T..R..E..V  <..2  m  q  n     g  :  :  :  :  :  :  :  :  :  :  :  :  :  :  :  :  :  :  :  :  :  f     ...>..q  O  <..V  E..R..7..+  $  U..W..b  0  M  <  O  w  ",
",  0     +  0  w  ,  #  b..n  j..O  0  n  w  w  +     O  X        :  :  :  :  :  :  :  :  :  :  :  :  :  :  :  :  :  :  :  :  :        X  O     +  w  w  n  0  O  0  6  y  W  3  3  0  2     Q..",
"b  B  T  X     2  ,  x  5  f  +  O  .  0  0  g     O     O        :  :  :  :  :  :  :  :  :  :  :  :  :  :  :  :  :  :  :  :  :        O     O     g  0  0  .  O  +     3  x  O  n  +  O  u  s  ",
"0  n  n  6  6  m  *  M  .  O  <  j..M  A  m  %  +        O  <     :  :  :  :  :  :  :  :  :  :  :  :  :  :  :  :  :  :  :  :  :        O        +  %  m  A  M  j...     O  l  o  5  k  n  n  m  ",
"T  &  !..,  2  0  +     X  o     O  +  0  n        +              :  :  :  :  :  :        :  :  :  :  :  :  :  :  :  :  :  :  :              +        n  0  +  O     O  0  .  n  O  n  m  w  3  ",
".  A  w  y  ~..4  k  %  m  6     %  X  .  .  X                    :  :  :  :              :  :  :  :  :  :  :  :  :  :  :  :  :                    X  .  .  X  %  .  X  O  j..*  g..@..y  w  A  ",
"k  T  o..F  V  W..~..%     6  @     %  O  0  6  O  0  5     +  <  :                                                                       m  0  O  6  0  O  %     @  j..X  @..Y..^..x..D..u  6  ",
"/..9..q..H  4  )  k  O  O  %     %  O  O  (..g  0  +  X  .                                                                             .  X  +  0  g  (..O  O  %     6  @  X  @..p..u  4  V..{  ",
"D  `  (..^  n  d  O  @  %  6  )..O  O  !  O  g  +              +                                                                 +              +  g  O  !  O  O  *  6  O  <  2  n  u  q  (..s..",
"O  Y  6  _..O  T  O  %  %  O  .  .  %  %  j..+  g              `..`..   :  :  :  :  :  :  :  :  :  :  :  :  :  :  :                             g  +  j..%  %  .     0  j..%  0  u  '.._..#  ,  ",
"(..o  2  3  T  0  &  5  w  n  g  0  0  6  O  *  +  O           `..S     :  `..`..`..`..`..:  :  `..`..`..`..`..:  :           :              O  f  *  O  6  j..0  g  M  n  T  6  0  0  l     2  ",
"g  m  0  %  O     .  o  X              O  O  X                 `..S     :  `..:  :  `..`..:  :  `..:  :  `..`..:  :                                X  O  O              X  X     a..g  j..,  q  ",
"A  e  B  9  +  ;     .     g                                   `..S     :  `..:  :  `..`..:  :  `..:  :  `..`..:              :                                      g        g  @  k  t  o..#  ",
"m  m  8..M  k  .        g  g  <                                `..S     :  `..:  :  `..`..:  :  `..:  :  `..`..:              :                                   <  g  g  <     g  &  #  x  m  ",
"X  n  A  0  u  k  9  f  <     g                                `..S     :  `..:  :  `..`..:  :  `..:  :  `..`..:              :                                   g     ;  +  #..9  &  0  w  O  ",
"+     0  0  u  e  a  #..   <  k                                `..S     :  `..:  :  `..`..:  :  `..:  :  `..`..:              :                                   g  ]...  #..>  e  &  %  X  +  ",
"+     !     0  w  o.._  #..f                                   `..S     :  `..:  :  `..`..:  :  `..:  :  `..`..:              :                                      g  (  [..M  e  6  2  @  +  ",
";  f  O  m  m  e  e  o..,..9                                   `..S     :  `..`..`..`..`..:  :  `..`..`..`..`..:              :                                      9  y  `  i..M  q  n  %     ",
"      %  6  g  u  4  4  #..k                                   `..`..   :  :  :  :  :  :  :  :  :  :  :  :  :  :              :  g                                   {..4  4  T  q  k  0        ",
"         O  w  n  q  w  R  k  +                                   :                                                                                               +  9  e  ,  ,  q  0  O     +  ",
"         X     O  e  &  0  +                                      :                                                              g                                   X  6  &  6     O     +     ",
"            O     ;  ]..0  H  g                                   :                                                              9                                .  u  2  ]..                  ",
"               A  }..+  k  W  #..      <        <  <              :                                                           :  g           <  <     g  <        #..6  k  .  6..O              ",
"            X  n  n  m  5  u  B  l  l  ,  w  W  k  g  g  g  g  g  :                                                           :  g     g  g  g  k  W  w  ,  l  l  B  T  n  O  m  X  O           ",
"            +  +  g  6  X  q  w     %  q  T  T..<  ]..<  <  g  g  :                                                           :  #..g  <  <  <  <  P  T  ,  %     w  %  *  O  +     +           ",
"                  O  )..O        g  q  A  9  R  }  9  +           :                                                                       +  9  }  y  9  $..q        0  O  0  .                 ",
"                  +  %  +  g  O  6  0  &  &  7  F  F  }  g        :                                                                    g  }  F  F  7  &  Q..0  6  O     g  j..                  ",
"                        g  X  !        2  g  e  x  Q  +        g  :                                                              g  g     +  Q  l  e  g  2        !  g                          ",
"                              O     2  b..w  0  3  ,  1  |..@     :                                                           :     @  |..1  ,  0  0  w  5  2     O     +                       ",
"         O           +           <     6  %  %  #  7..$   X.4     :                                                           :  9  4   X.$  7..#  6  %  6     <        +  +           O        ",
"         O  *                          O  %  m  m  .X.XXXoXX4..g  :                                                              g  4..oXXXXX.X.m  m  %  O     .                 +  X  X     +  ",
"   O  X  O     X                    +  *  w  M  e  g  ...5  0  +  :                                                              +  0  m  n  g  e  #  w  *  +                    O     X  O     ",
"   +                                <  +  6  w  0  q  5  ,  +  g  :                                                           :  g  +  ,  5  q  0  w  6  +  <                             +  +  ",
"      .  O  O  +        +  X  X                 .     O  %  .  P..:                                                           :        %  X     .                 X              6  2     .     ",
"   +     X  X  n  .  O  O  o  *                 k     *  %  O  +  :                                                           :  +  O  O  *     k                 *  X  X        X  X  O     +  ",
"      O  0  n  +     X     +  +                 +           .     :                                                           :     .        g  g                 +  +     O     2  n  O  O     ",
"<           .     O  n                    O  O  2  )..G..x  ,  g  :                                                           :  .  ,  x  G..,  0  O  O                 !  *        +           ",
"<                                            O  n  W  =  s  [  .  :                                                           :  g  [  s  =  W  n  O                    +                       ",
"                     +           ;  +     +  +  g  @  3  3  Q..0  :                                                           :  0  %  3  3     .  +  +     +  ;                                ",
"                                          q  m  q  G..w  T..}  O  :                                                           :  O  }  T..w  M  n  m  q                                         ",
"                                    g  m  &  u  A  Y  A  #  D..%  :                                                           :  %   . #  Q  i..A  u  &  m  g                                   ",
"                  X  X  *        g  g  %  0  ,  A  H  w  B  OXX^  :                                                           :  %  1..B  w  o..A  ,  0  %  g  g        X  X  O                 ",
"                     O     +              g  +  k  &  }  #..$  R  :                                                           :  R  $  #..}  &  k  +  g              X                          ",
"                     +                    .  3  k  n  4  C..}  k  :                                                           :  k  }  C..4  n  k  3  g              +     +                    "};
