/* XPM */
static char * Wall_xpm[] = {
/* columns rows colors chars-per-pixel */
"64 64 4 1",
" 	c black",
".	c #793A80",
"X	c #242234",
"o	c #403353",
/* pixels */
"                                                                ",
"                                                                ",
"  ........XX....................XXX..............XXX........... ",
"  ........XX....................XXX..............XXX........... ",
"  ooooo...XXooooooooooooooooo...XXXooooooooooo...XXXooooooooooo ",
"  ooooo...XXooooooooooooooooo...XXXooooooooooo...XXXooooooooooo ",
"  ooooo...XXooooooooooooooooo...XXXooooooooooo...XXXooooooooooo ",
"  ooooo...XXooooooooooooooooo...XXXooooooooooo...XXXooooooooooo ",
"  ooooo...XXooooooooooooooooo...XXXooooooooooo...XXXooooooooooo ",
"  ooooo...XXooooooooooooooooo...XXXooooooooooo...XXXooooooooooo ",
"  XXXXXXXXXXXXXXXXXXXXXXXXXXXXXXXXXXXXXXXXXXXXXXXXXXXXXXXXXXXXX ",
"  XXXXXXXXXXXXXXXXXXXXXXXXXXXXXXXXXXXXXXXXXXXXXXXXXXXXXXXXXXXXX ",
"  XXXXXXXXXXXXXXXXXXXXXXXXXXXXXXXXXXXXXXXXXXXXXXXXXXXXXXXXXXXXX ",
"  XXXXXXXXXXXXXXXXXXXXXXXXXXXXXXXXXXXXXXXXXXXXXXXXXXXXXXXXXXXXX ",
"  ................XXX...................XXX..............XXX... ",
"  ................XXX...................XXX..............XXX... ",
"  ................XXX...................XXX..............XXX... ",
"  ooooooooooooo...XXXoooooooooooooooo...XXXoooooooooooo..XXXooo ",
"  ooooooooooooo...XXXoooooooooooooooo...XXXoooooooooooo..XXXooo ",
"  ooooooooooooo...XXXoooooooooooooooo...XXXoooooooooooo..XXXooo ",
"  ooooooooooooo...XXXoooooooooooooooo...XXXoooooooooooo..XXXooo ",
"  ooooooooooooo...XXXoooooooooooooooo...XXXoooooooooooo..XXXooo ",
"  ooooooooooooo...XXXoooooooooooooooo...XXXoooooooooooo..XXXooo ",
"  ooooooooooooo...XXXoooooooooooooooo...XXXoooooooooooo..XXXooo ",
"  XXXXXXXXXXXXXXXXXXXXXXXXXXXXXXXXXXXXXXXXXXXXXXXXXXXXXXXXXXXXX ",
"  XXXXXXXXXXXXXXXXXXXXXXXXXXXXXXXXXXXXXXXXXXXXXXXXXXXXXXXXXXXXX ",
"  XXXXXXXXXXXXXXXXXXXXXXXXXXXXXXXXXXXXXXXXXXXXXXXXXXXXXXXXXXXXX ",
"  ........XX....................XXX..............XXX........... ",
"  ........XX....................XXX..............XXX........... ",
"  ........XX....................XXX..............XXX........... ",
"  ........XX....................XXX..............XXX........... ",
"  ooooo...XXooooooooooooooooo...XXXooooooooooo...XXXooooooooooo ",
"  ooooo...XXooooooooooooooooo...XXXooooooooooo...XXXooooooooooo ",
"  ooooo...XXooooooooooooooooo...XXXooooooooooo...XXXooooooooooo ",
"  ooooo...XXooooooooooooooooo...XXXooooooooooo...XXXooooooooooo ",
"  ooooo...XXooooooooooooooooo...XXXooooooooooo...XXXooooooooooo ",
"  ooooo...XXooooooooooooooooo...XXXooooooooooo...XXXooooooooooo ",
"  XXXXXXXXXXXXXXXXXXXXXXXXXXXXXXXXXXXXXXXXXXXXXXXXXXXXXXXXXXXXX ",
"  XXXXXXXXXXXXXXXXXXXXXXXXXXXXXXXXXXXXXXXXXXXXXXXXXXXXXXXXXXXXX ",
"  XXXXXXXXXXXXXXXXXXXXXXXXXXXXXXXXXXXXXXXXXXXXXXXXXXXXXXXXXXXXX ",
"  XXXXXXXXXXXXXXXXXXXXXXXXXXXXXXXXXXXXXXXXXXXXXXXXXXXXXXXXXXXXX ",
"  ...................XXX...................XXX..............XXX ",
"  ...................XXX...................XXX..............XXX ",
"  ...................XXX...................XXX..............XXX ",
"  oooooooooooooooo...XXXoooooooooooooooo...XXXooooooooooo...XXX ",
"  oooooooooooooooo...XXXoooooooooooooooo...XXXooooooooooo...XXX ",
"  oooooooooooooooo...XXXoooooooooooooooo...XXXooooooooooo...XXX ",
"  oooooooooooooooo...XXXoooooooooooooooo...XXXooooooooooo...XXX ",
"  oooooooooooooooo...XXXoooooooooooooooo...XXXooooooooooo...XXX ",
"  oooooooooooooooo...XXXoooooooooooooooo...XXXooooooooooo...XXX ",
"  oooooooooooooooo...XXXoooooooooooooooo...XXXooooooooooo...XXX ",
"  XXXXXXXXXXXXXXXXXXXXXXXXXXXXXXXXXXXXXXXXXXXXXXXXXXXXXXXXXXXXX ",
"  XXXXXXXXXXXXXXXXXXXXXXXXXXXXXXXXXXXXXXXXXXXXXXXXXXXXXXXXXXXXX ",
"  XXXXXXXXXXXXXXXXXXXXXXXXXXXXXXXXXXXXXXXXXXXXXXXXXXXXXXXXXXXXX ",
"  ooooo...XXooooooooooooooooo...XXXooooooooooo...XXXooooooooooo ",
"  ooooo...XXooooooooooooooooo...XXXooooooooooo...XXXooooooooooo ",
"  ooooo...XXooooooooooooooooo...XXXooooooooooo...XXXooooooooooo ",
"  ooooo...XXooooooooooooooooo...XXXooooooooooo...XXXooooooooooo ",
"  XXXXXXXXXXXXXXXXXXXXXXXXXXXXXXXXXXXXXXXXXXXXXXXXXXXXXXXXXXXXX ",
"  XXXXXXXXXXXXXXXXXXXXXXXXXXXXXXXXXXXXXXXXXXXXXXXXXXXXXXXXXXXXX ",
"  XXXXXXXXXXXXXXXXXXXXXXXXXXXXXXXXXXXXXXXXXXXXXXXXXXXXXXXXXXXXX ",
"  ................XXX...................XXX..............XXX... ",
"  ................XXX...................XXX..............XXX... ",
"                                                                "};
