/* XPM */
static char * wall_xpm[] = {
/* columns rows colors chars-per-pixel */
"64 64 5 1",
" 	c #170E11",
".	c #141114",
"X	c #1B171B",
"o	c #0F0B0D",
"O	c black",
/* pixels */
" .XXXXXXXXXXXXXXXXXXXXXXXXXXXXXXXXXXXXXXXXXXXXXXXXXXXXXXXXXXXXXX",
" .XXXXXXXXXXXXXXXXXXXXXXXXXXXXXXXXXXXXXXXXXXXXXXXXXXXXXXXXXXXXXX",
" .XXooooooooooooooooooooooooooooooooooooooooooooooooooooooooooXX",
" .XXo...........o...............o...............o............oXX",
" .XXo.XXXXXXXXXXoXXXXXXXXXXXXXXXoXXXXXXXXXXXXXXXoXXXXXXXXXXX.oXX",
" .XXo.XXXXXXXXXXoXXXXXXXXXXXXXXXoXXXXXXXXXXXXXXXoXXXXXXXXXXX.oXX",
" .XXo.XXXXXXXXXXoXXXXXXXXXXXXXXXoXXXXXXXXXXXXXXXoXXXXXXXXXXX.oXX",
" .XXo.XXXXXXXXXXoXXXXXXXXXXXXXXXoXXXXXXXXXXXXXXXoXXXXXXXXXXX.oXX",
" .XXo.XXXXXXXXXXoXXXXXXXXXXXXXXXoXXXXXXXXXXXXXXXoXXXXXXXXXXX.oXX",
" .XXo.XXXXXXXXX.o.XXXXXXXXXXXXX.o.XXXXXXXXXXXXX.o.XXXXXXXXXX.oXX",
" .XXooooooooooooooooooooooooooooooooooooooooooooooooooooooooooXX",
" .XXo.XX.o.XXXXXXXXXXXXX.o.XXXXXXXXXXXXX.o.XXXXXXXXXXXXX.o.X.oXX",
" .XXo.XXXoXXXXXXXXXXXXXXXoXXXXXXXXXXXXXXXoXXXXXXXXXXXXXXXoXX.oXX",
" .XXo.XXXoXXXXXXXXXXXXXXXoXXXXXXXXXXXXXXXoXXXXXXXXXXXXXXXoXX.oXX",
" .XXo.XXXoXXXXXXXXXXXXXXXoXXXXXXXXXXXXXXXoXXXXXXXXXXXXXXXoXX.oXX",
" .XXo.XX.o.XXXXXXXXXXXXX.o.XXXXXXXXXXXXX.o.XXXXXXXXXXXXX.o.X.oXX",
" .XXooooooooooooooooooooooooooooooooooooooooooooooooooooooooooXX",
" .XXo.XXXXXXXXXXXXX.o.XXXXXXXXXXXXX.o.XXXXXXXXXXXXX.o.XXXXXX.oXX",
" .XXo.XXXXXXXXXXXXXXoXXXXXXXXXXXXXXXoXXXXXXXXXXXXXXXoXXXXXXX.oXX",
" .XXo.XXXXXXXXXXXXXXoXXXXXXXXXXXXXXXoXXXXXXXXXXXXXXXoXXXXXXX.oXX",
" .XXo.XXXXXXXXXXXXXXoXXXXXXXXXXXXXXXoXXXXXXXXXXXXXXXoXXXXXXX.oXX",
" .XXo.XXXXXXXXXXXXX.o.XXXXXXXXXXXXX.o.XXXXXXXXXXXXX.o.XXXXXX.oXX",
" .XXooooooooooooooooooooooooooooooooooooooooooooooooooooooooooXX",
" .XXo.XXXXXXXX.o.XXXXXXXXXXXXX.o.XXXXXXXXXXXXX.o.XXXXXXXXXXX.oXX",
" .XXo.XXXXXXXXXoXXXXXXXXXXXXXXXoXXXXXXXXXXXXXXXoXXXXXXXXXXXX.oXX",
" .XXo.XXXXXXXXXoXXXXXXXXXXXXXXXoXXXXXXXXXXXXXXXoXXXXXXXXXXXX.oXX",
" .XXo.XXXXXXXXXoXXXXXXXXXXXXXXXoXXXXXXXXXXXXXXXoXXXXXXXXXXXX.oXX",
" .XXo.XXXXXXXX.o.XXXXXXXXXXXXX.o.XXXXXXXXXXXXX.o.XXXXXXXXXXX.oXX",
" .XXooooooooooooooooooooooooooooooooooooooooooooooooooooooooooXX",
" .XXo.XXXXXXXXXX.o.XXXXXXXXXXXXXXo.XXXXXXXXXXXXX.o.XXXXXXXXX.oXX",
" .XXo.XXXXXXXXXXXoXXXXXXXXXXXXXXXoXXXXXXXXXXXXXXXoXXXXXXXXXX.oXX",
" .XXo.XXXXXXXXXXXoXXXXXXXXXXXXXXXoXXXXXXXXXXXXXXXoXXXXXXXXXX.oXX",
" .XXo.XXXXXXXXXXXoXXXXXXXXXXXXXXXoXXXXXXXXXXXXXXXoXXXXXXXXXX.oXX",
" .XXo.XXXXXXXXXX.o.XXXXXXXXXXXXXXo.XXXXXXXXXXXXX.o.XXXXXXXXX.oXX",
" .XXooooooooooooooooooooooooooooooooooooooooooooooooooooooooooXX",
" .XXo.X.o.XXXXXXXXXXXXX.o.XXXXXXXXXXXXX.o.XXXXXXXXXXXXX.o.XX.oXX",
" .XXo.XXoXXXXXXXXXXXXXXXoXXXXXXXXXXXXXXXoXXXXXXXXXXXXXXXoXXX.oXX",
" .XXo.XXoXXXXXXXXXXXXXXXoXXXXXXXXXXXXXXXoXXXXXXXXXXXXXXXoXXX.oXX",
" .XXo.XXoXXXXXXXXXXXXXXXoXXXXXXXXXXXXXXXoXXXXXXXXXXXXXXXoXXX.oXX",
" .XXo.X.o.XXXXXXXXXXXXX.o.XXXXXXXXXXXXX.o.XXXXXXXXXXXXX.o.XX.oXX",
" .XXooooooooooooooooooooooooooooooooooooooooooooooooooooooooooXX",
" .XXo.XXXXXXXXXXXo.XXXXXXXXXXXXX.o.XXXXXXXXXXXXXXo.XXXXXXXXX.oXX",
" .XXo.XXXXXXXXXXXoXXXXXXXXXXXXXXXoXXXXXXXXXXXXXXXoXXXXXXXXXX.oXX",
" .XXo.XXXXXXXXXXXoXXXXXXXXXXXXXXXoXXXXXXXXXXXXXXXoXXXXXXXXXX.oXX",
" .XXo.XXXXXXXXXXXoXXXXXXXXXXXXXXXoXXXXXXXXXXXXXXXoXXXXXXXXXX.oXX",
" .XXo.XXXXXXXXXXXo.XXXXXXXXXXXXX.o.XXXXXXXXXXXXXXo.XXXXXXXXX.oXX",
" .XXooooooooooooooooooooooooooooooooooooooooooooooooooooooooooXX",
" .XXo.XXXXX.o.XXXXXXXXXXXXX.o.XXXXXXXXXXXXX.o.XXXXXXXXXXXXXX.oXX",
" .XXo.XXXXXXoXXXXXXXXXXXXXXXoXXXXXXXXXXXXXXXoXXXXXXXXXXXXXXX.oXX",
" .XXo.XXXXXXoXXXXXXXXXXXXXXXoXXXXXXXXXXXXXXXoXXXXXXXXXXXXXXX.oXX",
" .XXo.XXXXXXoXXXXXXXXXXXXXXXoXXXXXXXXXXXXXXXoXXXXXXXXXXXXXXX.oXX",
" .XXo.XXXXX.o.XXXXXXXXXXXXX.o.XXXXXXXXXXXXX.o.XXXXXXXXXXXXXX.oXX",
" .XXooooooooooooooooooooooooooooooooooooooooooooooooooooooooooXX",
" .XXo.XXXXXXXXXXXXXX.o.XXXXXXXXXXXXX.o.XXXXXXXXXXXXX.o.XXXXX.oXX",
" .XXo.XXXXXXXXXXXXXXXoXXXXXXXXXXXXXXXoXXXXXXXXXXXXXXXoXXXXXX.oXX",
" .XXo.XXXXXXXXXXXXXXXoXXXXXXXXXXXXXXXoXXXXXXXXXXXXXXXoXXXXXX.oXX",
" .XXo.XXXXXXXXXXXXXXXoXXXXXXXXXXXXXXXoXXXXXXXXXXXXXXXoXXXXXX.oXX",
" .XXo................o...............o...............o.......oXX",
" .XXooooooooooooooooooooooooooooooooooooooooooooooooooooooooooXX",
" .XXXXXXXXXXXXXXXXXXXXXXXXXXXXXXXXXXXXXXXXXXXXXXXXXXXXXXXXXXXXXX",
" .XXXXXXXXXXXXXXXXXXXXXXXXXXXXXXXXXXXXXXXXXXXXXXXXXXXXXXXXXXXXXX",
" .XXXXXXXXXXXXXXXXXXXXXXXXXXXXXXXXXXXXXXXXXXXXXXXXXXXXXXXXXXXXXX",
" ...............................................................",
"OOOOOOOOOOOOOOOOOOOOOOOOOOOOOOOOOOOOOOOOOOOOOOOOOOOOOOOOOOOOOOOO"};
